<svg width="72" height="78" viewBox="0 0 72 78" fill="none" xmlns="http://www.w3.org/2000/svg">
<path d="M35.5 17C44.0959 17 51.1555 23.5737 51.9287 31.9678C51.9306 31.9858 51.9457 31.9998 51.9639 32C51.9836 32 52 32.0164 52 32.0361V61C52 62.6569 50.6569 64 49 64H44C42.3431 64 41 62.6569 41 61V35.0107L40.9775 34.9883C40.9917 34.8275 41 34.6644 41 34.5C41 31.4624 38.5376 29 35.5 29C32.4624 29 30 31.4624 30 34.5C30 34.6644 30.0083 34.8275 30.0225 34.9883L30 35.0107V61C30 62.6569 28.6569 64 27 64H22C20.3431 64 19 62.6569 19 61V54H13C11.3431 54 10 52.6569 10 51V50C10 48.3431 11.3431 47 13 47H19V43H13C11.3431 43 10 41.6569 10 40V39C10 37.3431 11.3431 36 13 36H19V32.0361C19 32.0164 19.0164 32 19.0361 32C19.0543 31.9998 19.0694 31.9858 19.0713 31.9678C19.8445 23.5737 26.9041 17 35.5 17Z" fill="black"/>
</svg>
