<svg width="306" height="236" viewBox="0 0 306 236" fill="none" xmlns="http://www.w3.org/2000/svg">
<path fill-rule="evenodd" clip-rule="evenodd" d="M216.5 60.5009C208.091 61.3158 199.758 62.6491 191.5 64.5009C188.505 64.2947 185.838 64.9614 183.5 66.5009C177.863 66.5862 172.529 67.5862 167.5 69.5009C165.74 66.3003 164.906 62.6336 165 58.5009C161 54.5009 157 54.5009 153 58.5009C152.501 63.1557 152.334 67.8224 152.5 72.5009C134.437 75.1751 116.437 78.1751 98.5 81.5009C103.443 54.7172 119.11 37.5506 145.5 30.0009C169.638 25.2831 190.638 31.2831 208.5 48.0009C212.061 51.6308 214.728 55.7974 216.5 60.5009Z" fill="#0F0946"/>
<path fill-rule="evenodd" clip-rule="evenodd" d="M191.5 64.4994C189.095 65.7676 186.428 66.4343 183.5 66.4994C185.838 64.9599 188.505 64.2932 191.5 64.4994Z" fill="#0F0946"/>
<path fill-rule="evenodd" clip-rule="evenodd" d="M224.5 81.5003C204.857 85.2742 185.191 88.9408 165.5 92.5003C165.5 90.8336 165.5 89.167 165.5 87.5003C168.066 87.6559 170.566 87.3226 173 86.5003C174.876 85.3813 175.709 83.7147 175.5 81.5003C176.93 81.5795 178.264 81.2461 179.5 80.5003C180.214 77.9731 180.88 75.4731 181.5 73.0003C180.5 72.167 179.5 71.3336 178.5 70.5003C189.146 67.3025 200.146 64.9691 211.5 63.5003C214.041 62.3514 216.541 62.3514 219 63.5003C221.711 69.2494 223.544 75.2494 224.5 81.5003Z" fill="#0F0946"/>
<path fill-rule="evenodd" clip-rule="evenodd" d="M148.5 75.5C149.833 75.5 151.167 75.5 152.5 75.5C152.5 82.1667 152.5 88.8333 152.5 95.5C152.167 95.5 151.833 95.5 151.5 95.5C135.323 98.2017 119.323 101.535 103.5 105.5C101.549 105.773 100.049 105.107 99.0002 103.5C97.9884 97.2041 97.4884 90.8708 97.5002 84.5C114.578 81.8842 131.578 78.8842 148.5 75.5Z" fill="#0F0946"/>
<path fill-rule="evenodd" clip-rule="evenodd" d="M148.5 75.5006C149.919 74.5495 151.585 74.2161 153.5 74.5006C153.825 81.6872 153.491 88.6872 152.5 95.5006C152.5 88.8339 152.5 82.1673 152.5 75.5006C151.167 75.5006 149.833 75.5006 148.5 75.5006Z" fill="#0F0946"/>
<path fill-rule="evenodd" clip-rule="evenodd" d="M168.5 71.5C169.161 74.1704 169.161 77.1704 168.5 80.5C170.045 81.4519 171.712 81.7852 173.5 81.5C173.64 83.1238 172.973 84.2904 171.5 85C169.527 85.4955 167.527 85.6621 165.5 85.5C165.5 80.8333 165.5 76.1667 165.5 71.5C166.5 71.5 167.5 71.5 168.5 71.5Z" fill="#0F0946"/>
<path fill-rule="evenodd" clip-rule="evenodd" d="M224.5 84.5C225.593 92.8145 224.926 101.148 222.5 109.5C221.5 109.5 220.5 109.5 219.5 109.5C201.397 112.454 183.397 115.788 165.5 119.5C165.5 111.5 165.5 103.5 165.5 95.5C185.106 91.2603 204.772 87.5937 224.5 84.5Z" fill="#0F0946"/>
<path fill-rule="evenodd" clip-rule="evenodd" d="M152.5 116.5C152.5 118.5 152.5 120.5 152.5 122.5C138.832 124.836 125.165 127.003 111.5 129C106.103 122.706 102.436 115.539 100.5 107.5C102.5 107.167 104.5 106.833 106.5 106.5C115.643 104.711 124.809 103.045 134 101.5C135.955 101.641 137.455 102.474 138.5 104C137.577 106.041 137.244 108.208 137.5 110.5C139.5 110.5 141.5 110.5 143.5 110.5C143.178 112.722 143.845 114.556 145.5 116C147.81 116.497 150.143 116.663 152.5 116.5Z" fill="#0F0946"/>
<path fill-rule="evenodd" clip-rule="evenodd" d="M152.5 114.5C150.473 114.662 148.473 114.495 146.5 114C145.663 112.989 145.33 111.822 145.5 110.5C147.288 110.785 148.955 110.452 150.5 109.5C150.332 105.918 149.665 102.252 148.5 98.5C149.833 98.5 151.167 98.5 152.5 98.5C152.5 103.833 152.5 109.167 152.5 114.5Z" fill="#0F0946"/>
<path fill-rule="evenodd" clip-rule="evenodd" d="M218.5 119.5C207.437 138.207 191.104 149.207 169.5 152.5C168.167 152.5 166.833 152.5 165.5 152.5C165.5 147.5 165.5 142.5 165.5 137.5C168.32 137.752 170.986 137.252 173.5 136C175.037 134.89 175.703 133.39 175.5 131.5C177.5 131.5 179.5 131.5 181.5 131.5C180.948 129.669 180.948 128.003 181.5 126.5C180.877 124.289 179.877 122.289 178.5 120.5C190.555 116.876 202.889 114.21 215.5 112.5C217.167 112.833 218.833 113.167 220.5 113.5C219.628 115.45 218.961 117.45 218.5 119.5Z" fill="#0F0946"/>
<path fill-rule="evenodd" clip-rule="evenodd" d="M149.5 125.5C150.568 124.566 151.901 124.232 153.5 124.5C153.832 134.19 153.498 143.856 152.5 153.5C151.893 153.376 151.56 153.043 151.5 152.5C152.493 143.682 152.827 134.682 152.5 125.5C151.5 125.5 150.5 125.5 149.5 125.5Z" fill="#0F0946"/>
<path fill-rule="evenodd" clip-rule="evenodd" d="M149.5 125.5C150.5 125.5 151.5 125.5 152.5 125.5C152.827 134.682 152.493 143.682 151.5 152.5C137.753 150.232 125.753 144.399 115.5 135C114.663 133.989 114.33 132.822 114.5 131.5C126.19 129.607 137.856 127.607 149.5 125.5Z" fill="#0F0946"/>
<path fill-rule="evenodd" clip-rule="evenodd" d="M165.5 121.5C167.59 121.45 168.923 122.45 169.5 124.5C169.691 126.804 169.357 129.138 168.5 131.5C170.167 131.5 171.833 131.5 173.5 131.5C173.67 132.822 173.337 133.989 172.5 135C170.19 135.497 167.857 135.663 165.5 135.5C165.5 130.833 165.5 126.167 165.5 121.5Z" fill="#0F0946"/>
<path fill-rule="evenodd" clip-rule="evenodd" d="M165.501 137.5C165.501 142.5 165.501 147.5 165.501 152.5C166.834 152.5 168.168 152.5 169.501 152.5C168.082 153.451 166.416 153.784 164.501 153.5C164.18 147.974 164.513 142.64 165.501 137.5Z" fill="#0F0946"/>
<path fill-rule="evenodd" clip-rule="evenodd" d="M49.5 177.5C50.5676 176.566 51.901 176.232 53.5 176.5C52.3516 179.735 51.185 183.068 50 186.5C49.7711 183.265 49.6044 180.265 49.5 177.5Z" fill="#0F0946"/>
<path fill-rule="evenodd" clip-rule="evenodd" d="M171.5 175.499C173.971 175.232 175.638 176.232 176.5 178.499C176.046 181.221 175.38 183.888 174.5 186.499C173.837 182.665 172.837 178.998 171.5 175.499Z" fill="#0F0946"/>
<path fill-rule="evenodd" clip-rule="evenodd" d="M227.498 177.5C229.165 177.5 230.831 177.5 232.498 177.5C232.343 180.609 231.676 183.609 230.498 186.5C229.353 184.365 229.353 182.199 230.498 180C230.165 179.5 229.831 179 229.498 178.5C227.088 181.081 226.422 180.748 227.498 177.5Z" fill="#0F0946"/>
<path fill-rule="evenodd" clip-rule="evenodd" d="M251.5 177.5C253.5 177.5 255.5 177.5 257.5 177.5C257.365 180.774 256.365 183.774 254.5 186.5C253.969 183.901 253.802 181.235 254 178.5C252.506 182.304 251.672 181.971 251.5 177.5Z" fill="#0F0946"/>
<path fill-rule="evenodd" clip-rule="evenodd" d="M277.5 175.499C279.971 175.232 281.638 176.232 282.5 178.499C280.505 189.148 279.838 189.148 280.5 178.499C279.007 177.858 278.007 176.858 277.5 175.499Z" fill="#0F0946"/>
<path fill-rule="evenodd" clip-rule="evenodd" d="M88.5007 181.5C87.7666 180.292 87.4333 178.959 87.5007 177.5C87.9176 176.876 88.5843 176.543 89.5007 176.5C91.0571 177.547 92.7238 178.214 94.5007 178.5C94.5007 179.5 94.5007 180.5 94.5007 181.5C92.3895 180.62 90.3895 180.62 88.5007 181.5Z" fill="#0F0946"/>
<path fill-rule="evenodd" clip-rule="evenodd" d="M187.5 177.501C188.675 177.282 189.675 177.615 190.5 178.501C188.833 180.501 187.167 182.501 185.5 184.501C185.833 184.834 186.167 185.168 186.5 185.501C187.719 184.738 188.719 183.738 189.5 182.501C190.429 183.69 190.762 185.023 190.5 186.501C188.194 186.994 185.861 187.327 183.5 187.501C183.34 185.802 183.506 184.135 184 182.501C185.802 181.212 186.969 179.545 187.5 177.501Z" fill="#0F0946"/>
<path fill-rule="evenodd" clip-rule="evenodd" d="M262.5 176.5C264.196 176.685 265.529 177.519 266.5 179C268.473 179.495 270.473 179.662 272.5 179.5C272.5 180.5 272.5 181.5 272.5 182.5C270.833 182.5 269.167 182.5 267.5 182.5C267.762 183.978 267.429 185.311 266.5 186.5C264.833 178.5 263.167 178.5 261.5 186.5C261.167 185.5 260.833 184.5 260.5 183.5C261.182 181.159 261.849 178.826 262.5 176.5Z" fill="#0F0946"/>
<path fill-rule="evenodd" clip-rule="evenodd" d="M72.5003 180.5C74.3373 180.639 74.6707 181.306 73.5003 182.5C72.7028 182.043 72.3694 181.376 72.5003 180.5Z" fill="#0F0946"/>
<path fill-rule="evenodd" clip-rule="evenodd" d="M73.5 175.499C76.5876 175.196 78.2542 176.529 78.5 179.499C79.8333 179.499 81.1667 179.499 82.5 179.499C82.2343 183.078 80.901 183.412 78.5 180.499C77.8333 182.499 77.1667 184.499 76.5 186.499C76.1244 183.626 76.1244 180.626 76.5 177.499C74.8212 177.714 73.8212 177.047 73.5 175.499Z" fill="#0F0946"/>
<path fill-rule="evenodd" clip-rule="evenodd" d="M87.5 177.5C87.4326 178.959 87.7659 180.292 88.5 181.5C88.7852 183.288 88.4519 184.955 87.5 186.5C86.5815 184.242 85.9148 181.909 85.5 179.5C85.7472 178.287 86.4138 177.62 87.5 177.5Z" fill="#0F0946"/>
<path fill-rule="evenodd" clip-rule="evenodd" d="M99.5 175.5C101.876 177.159 104.543 178.493 107.5 179.5C105.726 180.187 104.059 181.02 102.5 182C104.421 183.241 104.754 184.741 103.5 186.5C102.004 182.723 100.337 182.723 98.5 186.5C98.1667 186.167 97.8333 185.833 97.5 185.5C98.1667 184.5 98.8333 183.5 99.5 182.5C98.5804 180.214 98.5804 177.881 99.5 175.5Z" fill="#0F0946"/>
<path fill-rule="evenodd" clip-rule="evenodd" d="M113.5 176.5C115.167 176.5 116.833 176.5 118.5 176.5C118.978 179.278 117.978 181.278 115.5 182.5C115.833 183.167 116.167 183.833 116.5 184.5C114.711 186.033 112.711 187.033 110.5 187.5C110.5 186.5 110.5 185.5 110.5 184.5C111.5 184.5 112.5 184.5 113.5 184.5C112.37 181.803 112.37 179.137 113.5 176.5Z" fill="#0F0946"/>
<path fill-rule="evenodd" clip-rule="evenodd" d="M194.5 175.5C196.048 175.821 196.715 176.821 196.5 178.5C198.5 178.5 200.5 178.5 202.5 178.5C202.5 181.167 202.5 183.833 202.5 186.5C201.5 186.5 200.5 186.5 199.5 186.5C199.357 184.738 199.691 183.071 200.5 181.5C200.192 180.692 199.692 180.025 199 179.5C197.806 181.623 197.14 183.957 197 186.5C195.658 187.902 194.824 187.569 194.5 185.5C195.203 182.222 195.203 178.889 194.5 175.5Z" fill="#0F0946"/>
<path fill-rule="evenodd" clip-rule="evenodd" d="M248.499 178.5C250.464 178.948 250.797 179.948 249.499 181.5C248.613 180.675 248.28 179.675 248.499 178.5Z" fill="#0F0946"/>
<path fill-rule="evenodd" clip-rule="evenodd" d="M283.5 179.5C284.5 179.5 285.5 179.5 286.5 179.5C285.754 183.31 284.754 183.31 283.5 179.5Z" fill="#0F0946"/>
<path fill-rule="evenodd" clip-rule="evenodd" d="M131.5 176.5C132.5 176.5 133.5 176.5 134.5 176.5C134.843 180.843 137.177 183.177 141.5 183.5C141.5 184.5 141.5 185.5 141.5 186.5C139.774 186.815 138.107 186.981 136.5 187C135.91 185.491 135.244 183.991 134.5 182.5C133.571 183.689 133.238 185.022 133.5 186.5C132.325 186.719 131.325 186.386 130.5 185.5C131.074 183.941 131.74 182.441 132.5 181C131.62 179.644 131.286 178.144 131.5 176.5Z" fill="#0F0946"/>
<path fill-rule="evenodd" clip-rule="evenodd" d="M158.502 175.5C160.05 175.821 160.717 176.821 160.502 178.5C166.827 178.38 168.161 181.047 164.502 186.5C163.835 184.5 163.169 182.5 162.502 180.5C161.502 182.5 160.502 184.5 159.502 186.5C158.513 182.893 158.179 179.226 158.502 175.5Z" fill="#0F0946"/>
<path fill-rule="evenodd" clip-rule="evenodd" d="M169.5 180.5C171.337 180.639 171.67 181.306 170.5 182.5C169.702 182.043 169.369 181.376 169.5 180.5Z" fill="#0F0946"/>
<path fill-rule="evenodd" clip-rule="evenodd" d="M177.5 179.5C178.5 179.5 179.5 179.5 180.5 179.5C180.5 180.5 180.5 181.5 180.5 182.5C179.5 182.5 178.5 182.5 177.5 182.5C177.5 181.5 177.5 180.5 177.5 179.5Z" fill="#0F0946"/>
<path fill-rule="evenodd" clip-rule="evenodd" d="M276.5 180.5C278.337 180.639 278.67 181.306 277.5 182.5C276.702 182.043 276.369 181.376 276.5 180.5Z" fill="#0F0946"/>
<path fill-rule="evenodd" clip-rule="evenodd" d="M216.502 176.5C218.743 177.3 219.743 178.966 219.502 181.5C220.502 181.5 221.502 181.5 222.502 181.5C222.404 187.373 221.404 187.706 219.502 182.5C218.15 183.518 217.15 184.851 216.502 186.5C216.026 183.26 216.026 179.927 216.502 176.5Z" fill="#0F0946"/>
<path fill-rule="evenodd" clip-rule="evenodd" d="M243.5 185.499C243.262 183.354 242.262 181.687 240.5 180.499C238.717 182.022 238.051 184.022 238.5 186.499C237.307 186.029 236.64 185.029 236.5 183.499C237.182 181.158 237.849 178.825 238.5 176.499C241.292 176.451 243.125 177.784 244 180.499C245.205 182.533 245.372 184.533 244.5 186.499C243.893 186.375 243.56 186.042 243.5 185.499Z" fill="#0F0946"/>
<path fill-rule="evenodd" clip-rule="evenodd" d="M243.499 185.5C241.707 185.366 240.041 185.699 238.499 186.5C238.05 184.023 238.716 182.023 240.499 180.5C242.261 181.688 243.261 183.355 243.499 185.5Z" fill="#0F0946"/>
<path fill-rule="evenodd" clip-rule="evenodd" d="M146.5 176.5C147.5 176.5 148.5 176.5 149.5 176.5C149.324 180.192 150.991 182.192 154.5 182.5C154.349 185.718 153.516 186.051 152 183.5C151.517 184.448 151.351 185.448 151.5 186.5C150.5 186.5 149.5 186.5 148.5 186.5C148.511 178.788 147.511 178.788 145.5 186.5C145.167 185.667 144.833 184.833 144.5 184C145.322 181.528 145.989 179.028 146.5 176.5Z" fill="#0F0946"/>
<path fill-rule="evenodd" clip-rule="evenodd" d="M57.5 176.5C61.5397 177.547 63.873 180.213 64.5 184.5C65.8333 185.167 67.1667 185.833 68.5 186.5C66.2825 187.057 63.9491 187.057 61.5 186.5C60.8333 181.167 60.1667 181.167 59.5 186.5C58.5 186.5 57.5 186.5 56.5 186.5C56.5861 184.323 57.2528 182.323 58.5 180.5C57.7542 179.264 57.4208 177.93 57.5 176.5Z" fill="#0F0946"/>
<path fill-rule="evenodd" clip-rule="evenodd" d="M49.5 195.5C52.6248 194.521 55.9581 194.187 59.5 194.5C59.5 195.5 59.5 196.5 59.5 197.5C56.8333 197.5 54.1667 197.5 51.5 197.5C53.631 196.686 55.9644 196.186 58.5 196C55.5184 195.502 52.5184 195.335 49.5 195.5Z" fill="#0F0946"/>
<path fill-rule="evenodd" clip-rule="evenodd" d="M153.5 197.5C155.631 196.686 157.964 196.186 160.5 196C157.183 195.502 153.85 195.335 150.5 195.5C150.5 199.5 150.5 203.5 150.5 207.5C153.85 207.665 157.183 207.498 160.5 207C157.854 206.503 155.187 206.336 152.5 206.5C152.232 204.901 152.566 203.568 153.5 202.5C153.5 203.5 153.5 204.5 153.5 205.5C156.167 205.5 158.833 205.5 161.5 205.5C161.5 206.5 161.5 207.5 161.5 208.5C157.5 208.5 153.5 208.5 149.5 208.5C149.5 203.833 149.5 199.167 149.5 194.5C153.5 194.5 157.5 194.5 161.5 194.5C161.5 195.5 161.5 196.5 161.5 197.5C158.833 197.5 156.167 197.5 153.5 197.5Z" fill="#0F0946"/>
<path fill-rule="evenodd" clip-rule="evenodd" d="M49.5 195.499C52.5184 195.334 55.5184 195.501 58.5 195.999C55.9644 196.185 53.631 196.685 51.5 197.499C51.5 198.499 51.5 199.499 51.5 200.499C60.8333 201.166 60.8333 201.832 51.5 202.499C51.5 203.499 51.5 204.499 51.5 205.499C54.1667 205.499 56.8333 205.499 59.5 205.499C59.5 206.499 59.5 207.499 59.5 208.499C56.1667 208.499 52.8333 208.499 49.5 208.499C49.5 204.166 49.5 199.832 49.5 195.499Z" fill="#0F0946"/>
<path fill-rule="evenodd" clip-rule="evenodd" d="M84.5005 198.5C83.8338 198.5 83.1672 198.5 82.5005 198.5C81.0248 196.77 81.3581 195.437 83.5005 194.5C85.6429 195.437 85.9762 196.77 84.5005 198.5Z" fill="#0F0946"/>
<path fill-rule="evenodd" clip-rule="evenodd" d="M113.5 194.5C114.5 194.5 115.5 194.5 116.5 194.5C116.5 195.5 116.5 196.5 116.5 197.5C115.5 197.5 114.5 197.5 113.5 197.5C113.5 196.5 113.5 195.5 113.5 194.5Z" fill="#0F0946"/>
<path fill-rule="evenodd" clip-rule="evenodd" d="M208.5 194.5C209.5 194.5 210.5 194.5 211.5 194.5C211.5 195.5 211.5 196.5 211.5 197.5C210.5 197.5 209.5 197.5 208.5 197.5C208.5 196.5 208.5 195.5 208.5 194.5Z" fill="#0F0946"/>
<path fill-rule="evenodd" clip-rule="evenodd" d="M253.5 194.5C254.5 194.5 255.5 194.5 256.5 194.5C256.5 195.5 256.5 196.5 256.5 197.5C255.5 197.5 254.5 197.5 253.5 197.5C253.5 196.5 253.5 195.5 253.5 194.5Z" fill="#0F0946"/>
<path fill-rule="evenodd" clip-rule="evenodd" d="M265.5 194.5C266.5 194.5 267.5 194.5 268.5 194.5C268.5 195.5 268.5 196.5 268.5 197.5C267.5 197.5 266.5 197.5 265.5 197.5C265.5 196.5 265.5 195.5 265.5 194.5Z" fill="#0F0946"/>
<path fill-rule="evenodd" clip-rule="evenodd" d="M78.5 199.5C79.0356 202.698 78.369 205.365 76.5 207.5C76.5 205.167 76.5 202.833 76.5 200.5C75.1667 200.5 73.8333 200.5 72.5 200.5C72.5 203.167 72.5 205.833 72.5 208.5C71.5 208.5 70.5 208.5 69.5 208.5C69.5 204.167 69.5 199.833 69.5 195.5C71.817 194.466 72.817 195.466 72.5 198.5C74.6208 198.325 76.6208 198.659 78.5 199.5Z" fill="#0F0946"/>
<path fill-rule="evenodd" clip-rule="evenodd" d="M153.5 197.5C155.508 199.083 157.841 200.083 160.5 200.5C157.833 200.5 155.167 200.5 152.5 200.5C152.263 199.209 152.596 198.209 153.5 197.5Z" fill="#0F0946"/>
<path fill-rule="evenodd" clip-rule="evenodd" d="M194.5 195.5C197.457 197.458 198.124 200.125 196.5 203.5C196.79 205.044 197.456 206.377 198.5 207.5C196.955 208.452 195.288 208.785 193.5 208.5C193.927 205.212 193.26 202.212 191.5 199.5C192.91 198.431 193.91 197.097 194.5 195.5Z" fill="#0F0946"/>
<path fill-rule="evenodd" clip-rule="evenodd" d="M262.5 195.5C261.206 197.048 260.539 199.048 260.5 201.5C260.539 203.952 261.206 205.952 262.5 207.5C261.791 208.404 260.791 208.737 259.5 208.5C259.5 203.833 259.5 199.167 259.5 194.5C260.791 194.263 261.791 194.596 262.5 195.5Z" fill="#0F0946"/>
<path fill-rule="evenodd" clip-rule="evenodd" d="M262.5 195.5C262.5 199.5 262.5 203.5 262.5 207.5C261.206 205.952 260.539 203.952 260.5 201.5C260.539 199.048 261.206 197.048 262.5 195.5Z" fill="#0F0946"/>
<path fill-rule="evenodd" clip-rule="evenodd" d="M282.5 211.5C281.127 211.657 279.793 211.49 278.5 211C279.416 210.722 280.082 210.222 280.5 209.5C280.477 207.073 279.977 204.74 279 202.5C277.89 200.963 276.39 200.297 274.5 200.5C274.16 203.144 274.827 205.477 276.5 207.5C274.994 208.747 273.494 208.747 272 207.5C271.003 203.428 270.836 199.428 271.5 195.5C272.5 195.5 273.5 195.5 274.5 195.5C274.5 196.5 274.5 197.5 274.5 198.5C278.739 197.789 281.406 199.456 282.5 203.5C283.95 202.345 284.95 200.845 285.5 199C286.483 198.409 287.15 198.743 287.5 200C285.681 203.801 284.014 207.634 282.5 211.5Z" fill="#0F0946"/>
<path fill-rule="evenodd" clip-rule="evenodd" d="M153.5 197.499C152.596 198.208 152.263 199.208 152.5 200.499C155.167 200.499 157.833 200.499 160.5 200.499C158.721 202.343 156.388 203.009 153.5 202.499C152.566 203.567 152.232 204.9 152.5 206.499C155.187 206.335 157.854 206.502 160.5 206.999C157.183 207.497 153.85 207.664 150.5 207.499C150.5 203.499 150.5 199.499 150.5 195.499C153.85 195.334 157.183 195.501 160.5 195.999C157.964 196.185 155.631 196.685 153.5 197.499Z" fill="#0F0946"/>
<path fill-rule="evenodd" clip-rule="evenodd" d="M215.5 198.499C218.665 197.963 221.331 198.796 223.5 200.999C221.203 201.017 218.869 200.85 216.5 200.499C216.5 202.499 216.5 204.499 216.5 206.499C218.57 206.55 220.403 205.884 222 204.499C223.726 205.647 223.559 206.814 221.5 207.999C216.594 209.755 213.927 208.088 213.5 202.999C213.519 201.166 214.185 199.666 215.5 198.499Z" fill="#0F0946"/>
<path fill-rule="evenodd" clip-rule="evenodd" d="M82.5003 198.5C83.167 210.5 83.8336 210.5 84.5003 198.5C85.4797 201.625 85.8131 204.958 85.5003 208.5C84.167 208.5 82.8336 208.5 81.5003 208.5C81.1875 204.958 81.5209 201.625 82.5003 198.5Z" fill="#0F0946"/>
<path fill-rule="evenodd" clip-rule="evenodd" d="M82.5 198.5C83.1667 198.5 83.8333 198.5 84.5 198.5C83.8333 210.5 83.1667 210.5 82.5 198.5Z" fill="#0F0946"/>
<path fill-rule="evenodd" clip-rule="evenodd" d="M113.5 198.5C114.5 198.5 115.5 198.5 116.5 198.5C116.5 201.833 116.5 205.167 116.5 208.5C115.5 208.5 114.5 208.5 113.5 208.5C113.5 205.167 113.5 201.833 113.5 198.5Z" fill="#0F0946"/>
<path fill-rule="evenodd" clip-rule="evenodd" d="M135.5 198.5C137.292 198.366 138.958 198.699 140.5 199.5C140.813 202.247 140.48 204.914 139.5 207.5C138.832 205.031 138.165 202.698 137.5 200.5C136.833 199.833 136.167 199.167 135.5 198.5Z" fill="#0F0946"/>
<path fill-rule="evenodd" clip-rule="evenodd" d="M208.5 198.5C209.5 198.5 210.5 198.5 211.5 198.5C211.5 201.833 211.5 205.167 211.5 208.5C210.5 208.5 209.5 208.5 208.5 208.5C208.5 205.167 208.5 201.833 208.5 198.5Z" fill="#0F0946"/>
<path fill-rule="evenodd" clip-rule="evenodd" d="M100.5 198.5C103.187 198.336 105.854 198.503 108.5 199C111.987 201.451 112.32 204.284 109.5 207.5C107.591 208.348 105.591 208.682 103.5 208.5C103.5 209.833 103.5 211.167 103.5 212.5C102.5 212.5 101.5 212.5 100.5 212.5C100.5 207.833 100.5 203.167 100.5 198.5Z" fill="#0F0946"/>
<path fill-rule="evenodd" clip-rule="evenodd" d="M104.501 200.5C105.834 200.5 107.168 200.5 108.501 200.5C108.661 202.199 108.495 203.866 108.001 205.5C103.634 206.575 102.467 204.908 104.501 200.5Z" fill="#0F0946"/>
<path fill-rule="evenodd" clip-rule="evenodd" d="M67.5 198.5C66.6532 200.029 65.9865 201.696 65.5 203.5C65.9865 205.304 66.6532 206.971 67.5 208.5C65.8561 208.714 64.3561 208.38 63 207.5C62.7305 204.776 62.2305 202.109 61.5 199.5C62.0256 197.77 63.0256 196.436 64.5 195.5C65.1411 196.993 66.1411 197.993 67.5 198.5Z" fill="#0F0946"/>
<path fill-rule="evenodd" clip-rule="evenodd" d="M119.501 198.501C122.449 198.224 125.282 198.557 128.001 199.501C128.499 202.483 128.666 205.483 128.501 208.501C125.224 208.785 122.058 208.452 119.001 207.501C118.29 205.634 118.79 204.134 120.501 203.001C122.257 202.799 123.923 202.299 125.501 201.501C123.866 200.32 122.199 200.32 120.501 201.501C119.615 200.676 119.282 199.676 119.501 198.501Z" fill="#0F0946"/>
<path fill-rule="evenodd" clip-rule="evenodd" d="M131.5 198.5C131.183 201.572 131.516 204.572 132.5 207.5C133.715 204.38 134.049 201.38 133.5 198.5C134.167 198.5 134.833 198.5 135.5 198.5C136.167 199.167 136.833 199.833 137.5 200.5C136.504 200.414 135.671 200.748 135 201.5C134.503 203.81 134.337 206.143 134.5 208.5C133.167 208.5 131.833 208.5 130.5 208.5C130.187 204.958 130.521 201.625 131.5 198.5Z" fill="#0F0946"/>
<path fill-rule="evenodd" clip-rule="evenodd" d="M140.5 199.5C141.477 202.287 141.81 205.287 141.5 208.5C140.167 208.5 138.833 208.5 137.5 208.5C137.5 205.833 137.5 203.167 137.5 200.5C138.165 202.698 138.832 205.031 139.5 207.5C140.48 204.914 140.813 202.247 140.5 199.5Z" fill="#0F0946"/>
<path fill-rule="evenodd" clip-rule="evenodd" d="M170.5 199.5C169.781 201.764 169.448 204.097 169.5 206.5C168.853 205.726 168.52 204.726 168.5 203.5C168.34 201.645 169.007 200.312 170.5 199.5Z" fill="#0F0946"/>
<path fill-rule="evenodd" clip-rule="evenodd" d="M178.5 200.5C179.434 201.568 179.768 202.901 179.5 204.5C176.612 203.99 174.279 204.656 172.5 206.5C171.596 205.791 171.263 204.791 171.5 203.5C173.833 203.5 176.167 203.5 178.5 203.5C178.5 202.5 178.5 201.5 178.5 200.5Z" fill="#0F0946"/>
<path fill-rule="evenodd" clip-rule="evenodd" d="M265.5 198.5C266.5 198.5 267.5 198.5 268.5 198.5C268.5 201.833 268.5 205.167 268.5 208.5C267.5 208.5 266.5 208.5 265.5 208.5C265.5 205.167 265.5 201.833 265.5 198.5Z" fill="#0F0946"/>
<path fill-rule="evenodd" clip-rule="evenodd" d="M166.5 195.5C165.206 197.048 164.539 199.048 164.5 201.5C164.539 203.952 165.206 205.952 166.5 207.5C165.791 208.404 164.791 208.737 163.5 208.5C163.5 203.833 163.5 199.167 163.5 194.5C164.791 194.263 165.791 194.596 166.5 195.5Z" fill="#0F0946"/>
<path fill-rule="evenodd" clip-rule="evenodd" d="M166.5 195.5C166.5 199.5 166.5 203.5 166.5 207.5C165.206 205.952 164.539 203.952 164.5 201.5C164.539 199.048 165.206 197.048 166.5 195.5Z" fill="#0F0946"/>
<path fill-rule="evenodd" clip-rule="evenodd" d="M178.501 200.501C178.501 201.501 178.501 202.501 178.501 203.501C176.168 203.501 173.834 203.501 171.501 203.501C171.264 204.792 171.597 205.792 172.501 206.501C174.6 205.77 176.6 205.77 178.501 206.501C175.401 209.045 172.401 209.045 169.501 206.501C169.449 204.098 169.782 201.765 170.501 199.501C173.398 198.228 176.064 198.562 178.501 200.501Z" fill="#0F0946"/>
<path fill-rule="evenodd" clip-rule="evenodd" d="M172.5 200.501C173.675 200.282 174.675 200.615 175.5 201.501C173.948 202.799 172.948 202.466 172.5 200.501Z" fill="#0F0946"/>
<path fill-rule="evenodd" clip-rule="evenodd" d="M200.5 198.5C200.183 201.572 200.516 204.572 201.5 207.5C202.169 205.369 202.835 203.369 203.5 201.5C203.5 203.833 203.5 206.167 203.5 208.5C202.167 208.5 200.833 208.5 199.5 208.5C199.187 204.958 199.521 201.625 200.5 198.5Z" fill="#0F0946"/>
<path fill-rule="evenodd" clip-rule="evenodd" d="M200.499 198.501C202.603 198.202 204.603 198.535 206.499 199.501C205.397 200.177 204.397 200.843 203.499 201.501C202.834 203.37 202.168 205.37 201.499 207.501C200.515 204.573 200.182 201.573 200.499 198.501Z" fill="#0F0946"/>
<path fill-rule="evenodd" clip-rule="evenodd" d="M89.5005 198.501C92.6026 198.155 95.436 198.822 98.0005 200.501C99.3742 205.429 97.5408 208.095 92.5005 208.501C87.8492 207.808 86.3492 205.142 88.0005 200.501C88.7177 199.957 89.2177 199.29 89.5005 198.501Z" fill="#0F0946"/>
<path fill-rule="evenodd" clip-rule="evenodd" d="M121.5 204.501C122.978 204.239 124.311 204.572 125.5 205.501C124.833 205.834 124.167 206.168 123.5 206.501C122.287 206.254 121.62 205.587 121.5 204.501Z" fill="#0F0946"/>
<path fill-rule="evenodd" clip-rule="evenodd" d="M131.499 198.5C132.166 198.5 132.832 198.5 133.499 198.5C134.048 201.38 133.714 204.38 132.499 207.5C131.515 204.572 131.182 201.572 131.499 198.5Z" fill="#0F0946"/>
<path fill-rule="evenodd" clip-rule="evenodd" d="M247.5 207.501C247.632 204.431 247.299 201.431 246.5 198.501C247.048 196.469 248.381 195.469 250.5 195.501C250.74 199.13 251.074 202.796 251.5 206.501C252.086 206.71 252.586 207.044 253 207.501C253.498 204.519 253.665 201.519 253.5 198.501C254.5 198.501 255.5 198.501 256.5 198.501C256.5 201.834 256.5 205.168 256.5 208.501C253.287 208.811 250.287 208.478 247.5 207.501Z" fill="#0F0946"/>
<path fill-rule="evenodd" clip-rule="evenodd" d="M183.5 198.499C186.157 198.161 188.49 198.828 190.5 200.499C188.599 201.23 186.599 201.23 184.5 200.499C184.5 202.499 184.5 204.499 184.5 206.499C186.277 206.213 187.944 205.546 189.5 204.499C190.167 204.832 190.833 205.166 191.5 205.499C188.492 208.967 185.158 209.3 181.5 206.499C179.836 203.089 180.503 200.422 183.5 198.499Z" fill="#0F0946"/>
<path fill-rule="evenodd" clip-rule="evenodd" d="M243.501 194.5C243.707 198.898 243.374 203.232 242.501 207.5C239.333 208.792 236.166 208.792 233.001 207.5C231.647 203.637 231.147 199.637 231.501 195.5C232.501 195.5 233.501 195.5 234.501 195.5C234.336 198.85 234.503 202.183 235.001 205.5C236.668 206.833 238.334 206.833 240.001 205.5C240.5 201.848 240.666 198.182 240.501 194.5C241.501 194.5 242.501 194.5 243.501 194.5Z" fill="#0F0946"/>
<path fill-rule="evenodd" clip-rule="evenodd" d="M78.5 199.5C79.4767 202.287 79.81 205.287 79.5 208.5C78.209 208.737 77.209 208.404 76.5 207.5C78.369 205.365 79.0356 202.698 78.5 199.5Z" fill="#0F0946"/>
<path fill-rule="evenodd" clip-rule="evenodd" d="M280.5 209.5C280.082 210.222 279.416 210.722 278.5 211C279.793 211.49 281.127 211.657 282.5 211.5C281.081 212.451 279.415 212.784 277.5 212.5C277.5 211.5 277.5 210.5 277.5 209.5C278.5 209.5 279.5 209.5 280.5 209.5Z" fill="#0F0946"/>
</svg>
