<?xml version="1.0" encoding="UTF-8"?>
<!DOCTYPE svg PUBLIC "-//W3C//DTD SVG 1.1//EN" "http://www.w3.org/Graphics/SVG/1.1/DTD/svg11.dtd">
<svg xmlns="http://www.w3.org/2000/svg" version="1.1" width="306px" height="236px" style="shape-rendering:geometricPrecision; text-rendering:geometricPrecision; image-rendering:optimizeQuality; fill-rule:evenodd; clip-rule:evenodd" xmlns:xlink="http://www.w3.org/1999/xlink">
<g><path style="opacity:1" fill="#fefefd" d="M -0.5,-0.5 C 101.5,-0.5 203.5,-0.5 305.5,-0.5C 305.5,78.1667 305.5,156.833 305.5,235.5C 203.5,235.5 101.5,235.5 -0.5,235.5C -0.5,156.833 -0.5,78.1667 -0.5,-0.5 Z"/></g>
<g><path style="opacity:1" fill="#f3aa48" d="M 216.5,60.5 C 208.091,61.3149 199.758,62.6482 191.5,64.5C 188.505,64.2938 185.838,64.9605 183.5,66.5C 177.863,66.5853 172.529,67.5853 167.5,69.5C 165.74,66.2994 164.906,62.6327 165,58.5C 161,54.5 157,54.5 153,58.5C 152.501,63.1548 152.334,67.8215 152.5,72.5C 134.437,75.1742 116.437,78.1742 98.5,81.5C 103.443,54.7163 119.11,37.5497 145.5,30C 169.638,25.2822 190.638,31.2822 208.5,48C 212.061,51.6299 214.728,55.7965 216.5,60.5 Z"/></g>
<g><path style="opacity:1" fill="#fae0b6" d="M 191.5,64.5 C 189.095,65.7682 186.428,66.4349 183.5,66.5C 185.838,64.9605 188.505,64.2938 191.5,64.5 Z"/></g>
<g><path style="opacity:1" fill="#f3f7ef" d="M 216.5,60.5 C 214.369,61.3138 212.036,61.8138 209.5,62C 210.416,62.2784 211.082,62.7784 211.5,63.5C 200.146,64.9688 189.146,67.3022 178.5,70.5C 179.5,71.3333 180.5,72.1667 181.5,73C 180.88,75.4728 180.214,77.9728 179.5,80.5C 178.264,81.2458 176.93,81.5792 175.5,81.5C 175.709,83.7144 174.876,85.381 173,86.5C 170.566,87.3223 168.066,87.6556 165.5,87.5C 165.5,86.8333 165.5,86.1667 165.5,85.5C 167.527,85.6621 169.527,85.4955 171.5,85C 172.973,84.2904 173.64,83.1238 173.5,81.5C 171.712,81.7852 170.045,81.4519 168.5,80.5C 169.161,77.1704 169.161,74.1704 168.5,71.5C 170.954,70.3794 173.621,69.546 176.5,69C 173.493,68.6987 170.493,68.8654 167.5,69.5C 172.529,67.5853 177.863,66.5853 183.5,66.5C 186.428,66.4349 189.095,65.7682 191.5,64.5C 199.758,62.6482 208.091,61.3149 216.5,60.5 Z"/></g>
<g><path style="opacity:1" fill="#62be6c" d="M 224.5,81.5 C 204.857,85.2739 185.191,88.9405 165.5,92.5C 165.5,90.8333 165.5,89.1667 165.5,87.5C 168.066,87.6556 170.566,87.3223 173,86.5C 174.876,85.381 175.709,83.7144 175.5,81.5C 176.93,81.5792 178.264,81.2458 179.5,80.5C 180.214,77.9728 180.88,75.4728 181.5,73C 180.5,72.1667 179.5,71.3333 178.5,70.5C 189.146,67.3022 200.146,64.9688 211.5,63.5C 214.041,62.3511 216.541,62.3511 219,63.5C 221.711,69.2491 223.544,75.2491 224.5,81.5 Z"/></g>
<g><path style="opacity:1" fill="#61be6b" d="M 148.5,75.5 C 149.833,75.5 151.167,75.5 152.5,75.5C 152.5,82.1667 152.5,88.8333 152.5,95.5C 152.167,95.5 151.833,95.5 151.5,95.5C 135.323,98.2017 119.323,101.535 103.5,105.5C 101.549,105.773 100.049,105.107 99,103.5C 97.9882,97.2041 97.4882,90.8708 97.5,84.5C 114.578,81.8842 131.578,78.8842 148.5,75.5 Z"/></g>
<g><path style="opacity:1" fill="#c0e4c0" d="M 148.5,75.5 C 149.919,74.5489 151.585,74.2155 153.5,74.5C 153.825,81.6866 153.491,88.6866 152.5,95.5C 152.5,88.8333 152.5,82.1667 152.5,75.5C 151.167,75.5 149.833,75.5 148.5,75.5 Z"/></g>
<g><path style="opacity:1" fill="#6ac072" d="M 168.5,71.5 C 169.161,74.1704 169.161,77.1704 168.5,80.5C 170.045,81.4519 171.712,81.7852 173.5,81.5C 173.64,83.1238 172.973,84.2904 171.5,85C 169.527,85.4955 167.527,85.6621 165.5,85.5C 165.5,80.8333 165.5,76.1667 165.5,71.5C 166.5,71.5 167.5,71.5 168.5,71.5 Z"/></g>
<g><path style="opacity:1" fill="#62be6b" d="M 224.5,84.5 C 225.593,92.8145 224.926,101.148 222.5,109.5C 221.5,109.5 220.5,109.5 219.5,109.5C 201.397,112.454 183.397,115.788 165.5,119.5C 165.5,111.5 165.5,103.5 165.5,95.5C 185.106,91.2603 204.772,87.5937 224.5,84.5 Z"/></g>
<g><path style="opacity:1" fill="#e7f4e8" d="M 224.5,81.5 C 224.5,82.5 224.5,83.5 224.5,84.5C 204.772,87.5937 185.106,91.2603 165.5,95.5C 166.833,94.5 166.833,93.5 165.5,92.5C 185.191,88.9405 204.857,85.2739 224.5,81.5 Z"/></g>
<g><path style="opacity:1" fill="#e9f5e9" d="M 151.5,95.5 C 151.082,96.2216 150.416,96.7216 149.5,97C 150.793,97.49 152.127,97.6567 153.5,97.5C 153.822,103.358 153.489,109.025 152.5,114.5C 152.5,115.167 152.5,115.833 152.5,116.5C 150.143,116.663 147.81,116.497 145.5,116C 143.845,114.556 143.178,112.722 143.5,110.5C 141.5,110.5 139.5,110.5 137.5,110.5C 137.244,108.208 137.577,106.041 138.5,104C 137.455,102.474 135.955,101.641 134,101.5C 124.809,103.045 115.643,104.711 106.5,106.5C 105.791,105.596 104.791,105.263 103.5,105.5C 119.323,101.535 135.323,98.2017 151.5,95.5 Z"/></g>
<g><path style="opacity:1" fill="#62be6b" d="M 152.5,116.5 C 152.5,118.5 152.5,120.5 152.5,122.5C 138.832,124.836 125.165,127.003 111.5,129C 106.103,122.706 102.436,115.539 100.5,107.5C 102.5,107.167 104.5,106.833 106.5,106.5C 115.643,104.711 124.809,103.045 134,101.5C 135.955,101.641 137.455,102.474 138.5,104C 137.577,106.041 137.244,108.208 137.5,110.5C 139.5,110.5 141.5,110.5 143.5,110.5C 143.178,112.722 143.845,114.556 145.5,116C 147.81,116.497 150.143,116.663 152.5,116.5 Z"/></g>
<g><path style="opacity:1" fill="#68bf70" d="M 152.5,114.5 C 150.473,114.662 148.473,114.495 146.5,114C 145.663,112.989 145.33,111.822 145.5,110.5C 147.288,110.785 148.955,110.452 150.5,109.5C 150.332,105.918 149.665,102.252 148.5,98.5C 149.833,98.5 151.167,98.5 152.5,98.5C 152.5,103.833 152.5,109.167 152.5,114.5 Z"/></g>
<g><path style="opacity:1" fill="#eef7ee" d="M 219.5,109.5 C 218.737,110.268 217.737,110.768 216.5,111C 218.134,111.494 219.801,111.66 221.5,111.5C 221.664,114.187 221.497,116.854 221,119.5C 220.23,118.402 219.397,118.402 218.5,119.5C 218.961,117.45 219.628,115.45 220.5,113.5C 218.833,113.167 217.167,112.833 215.5,112.5C 202.889,114.21 190.555,116.876 178.5,120.5C 179.877,122.289 180.877,124.289 181.5,126.5C 180.948,128.003 180.948,129.669 181.5,131.5C 179.5,131.5 177.5,131.5 175.5,131.5C 175.703,133.39 175.037,134.89 173.5,136C 170.986,137.252 168.32,137.752 165.5,137.5C 165.5,136.833 165.5,136.167 165.5,135.5C 167.857,135.663 170.19,135.497 172.5,135C 173.337,133.989 173.67,132.822 173.5,131.5C 171.833,131.5 170.167,131.5 168.5,131.5C 169.357,129.138 169.691,126.804 169.5,124.5C 168.923,122.45 167.59,121.45 165.5,121.5C 165.5,120.833 165.5,120.167 165.5,119.5C 183.397,115.788 201.397,112.454 219.5,109.5 Z"/></g>
<g><path style="opacity:1" fill="#62be6b" d="M 218.5,119.5 C 207.437,138.207 191.104,149.207 169.5,152.5C 168.167,152.5 166.833,152.5 165.5,152.5C 165.5,147.5 165.5,142.5 165.5,137.5C 168.32,137.752 170.986,137.252 173.5,136C 175.037,134.89 175.703,133.39 175.5,131.5C 177.5,131.5 179.5,131.5 181.5,131.5C 180.948,129.669 180.948,128.003 181.5,126.5C 180.877,124.289 179.877,122.289 178.5,120.5C 190.555,116.876 202.889,114.21 215.5,112.5C 217.167,112.833 218.833,113.167 220.5,113.5C 219.628,115.45 218.961,117.45 218.5,119.5 Z"/></g>
<g><path style="opacity:1" fill="#c1e5c0" d="M 149.5,125.5 C 150.568,124.566 151.901,124.232 153.5,124.5C 153.832,134.19 153.498,143.856 152.5,153.5C 151.893,153.376 151.56,153.043 151.5,152.5C 152.493,143.682 152.827,134.682 152.5,125.5C 151.5,125.5 150.5,125.5 149.5,125.5 Z"/></g>
<g><path style="opacity:1" fill="#62be6b" d="M 149.5,125.5 C 150.5,125.5 151.5,125.5 152.5,125.5C 152.827,134.682 152.493,143.682 151.5,152.5C 137.753,150.232 125.753,144.399 115.5,135C 114.663,133.989 114.33,132.822 114.5,131.5C 126.19,129.607 137.856,127.607 149.5,125.5 Z"/></g>
<g><path style="opacity:1" fill="#69bf70" d="M 165.5,121.5 C 167.59,121.45 168.923,122.45 169.5,124.5C 169.691,126.804 169.357,129.138 168.5,131.5C 170.167,131.5 171.833,131.5 173.5,131.5C 173.67,132.822 173.337,133.989 172.5,135C 170.19,135.497 167.857,135.663 165.5,135.5C 165.5,130.833 165.5,126.167 165.5,121.5 Z"/></g>
<g><path style="opacity:1" fill="#d1ecce" d="M 165.5,137.5 C 165.5,142.5 165.5,147.5 165.5,152.5C 166.833,152.5 168.167,152.5 169.5,152.5C 168.081,153.451 166.415,153.784 164.5,153.5C 164.179,147.974 164.512,142.64 165.5,137.5 Z"/></g>
<g><path style="opacity:1" fill="#f6c581" d="M 49.5,177.5 C 50.5676,176.566 51.901,176.232 53.5,176.5C 52.3516,179.735 51.185,183.068 50,186.5C 49.7711,183.265 49.6044,180.265 49.5,177.5 Z"/></g>
<g><path style="opacity:1" fill="#f3bd6d" d="M 171.5,175.5 C 173.971,175.233 175.638,176.233 176.5,178.5C 176.046,181.222 175.38,183.889 174.5,186.5C 173.837,182.666 172.837,178.999 171.5,175.5 Z"/></g>
<g><path style="opacity:1" fill="#f3b25a" d="M 227.5,177.5 C 229.167,177.5 230.833,177.5 232.5,177.5C 232.345,180.609 231.678,183.609 230.5,186.5C 229.355,184.365 229.355,182.199 230.5,180C 230.167,179.5 229.833,179 229.5,178.5C 227.09,181.081 226.424,180.748 227.5,177.5 Z"/></g>
<g><path style="opacity:1" fill="#f5bc6e" d="M 251.5,177.5 C 253.5,177.5 255.5,177.5 257.5,177.5C 257.365,180.774 256.365,183.774 254.5,186.5C 253.969,183.901 253.802,181.235 254,178.5C 252.506,182.304 251.672,181.971 251.5,177.5 Z"/></g>
<g><path style="opacity:1" fill="#f2b45a" d="M 277.5,175.5 C 279.971,175.233 281.638,176.233 282.5,178.5C 280.505,189.149 279.838,189.149 280.5,178.5C 279.007,177.859 278.007,176.859 277.5,175.5 Z"/></g>
<g><path style="opacity:1" fill="#f6cb8c" d="M 88.5,181.5 C 87.7659,180.292 87.4326,178.959 87.5,177.5C 87.9169,176.876 88.5836,176.543 89.5,176.5C 91.0564,177.547 92.7231,178.214 94.5,178.5C 94.5,179.5 94.5,180.5 94.5,181.5C 92.3888,180.62 90.3888,180.62 88.5,181.5 Z"/></g>
<g><path style="opacity:1" fill="#f4bf77" d="M 187.5,177.5 C 188.675,177.281 189.675,177.614 190.5,178.5C 188.833,180.5 187.167,182.5 185.5,184.5C 185.833,184.833 186.167,185.167 186.5,185.5C 187.719,184.737 188.719,183.737 189.5,182.5C 190.429,183.689 190.762,185.022 190.5,186.5C 188.194,186.993 185.861,187.326 183.5,187.5C 183.34,185.801 183.506,184.134 184,182.5C 185.802,181.211 186.969,179.544 187.5,177.5 Z"/></g>
<g><path style="opacity:1" fill="#f4b664" d="M 262.5,176.5 C 264.196,176.685 265.529,177.519 266.5,179C 268.473,179.495 270.473,179.662 272.5,179.5C 272.5,180.5 272.5,181.5 272.5,182.5C 270.833,182.5 269.167,182.5 267.5,182.5C 267.762,183.978 267.429,185.311 266.5,186.5C 264.833,178.5 263.167,178.5 261.5,186.5C 261.167,185.5 260.833,184.5 260.5,183.5C 261.182,181.159 261.849,178.826 262.5,176.5 Z"/></g>
<g><path style="opacity:1" fill="#f3b662" d="M 72.5,180.5 C 74.337,180.639 74.6704,181.306 73.5,182.5C 72.7025,182.043 72.3691,181.376 72.5,180.5 Z"/></g>
<g><path style="opacity:1" fill="#f3b864" d="M 73.5,175.5 C 76.5876,175.197 78.2542,176.53 78.5,179.5C 79.8333,179.5 81.1667,179.5 82.5,179.5C 82.2343,183.079 80.901,183.413 78.5,180.5C 77.8333,182.5 77.1667,184.5 76.5,186.5C 76.1244,183.627 76.1244,180.627 76.5,177.5C 74.8212,177.715 73.8212,177.048 73.5,175.5 Z"/></g>
<g><path style="opacity:1" fill="#f4b259" d="M 87.5,177.5 C 87.4326,178.959 87.7659,180.292 88.5,181.5C 88.7852,183.288 88.4519,184.955 87.5,186.5C 86.5815,184.242 85.9148,181.909 85.5,179.5C 85.7472,178.287 86.4138,177.62 87.5,177.5 Z"/></g>
<g><path style="opacity:1" fill="#f4b968" d="M 99.5,175.5 C 101.876,177.159 104.543,178.493 107.5,179.5C 105.726,180.187 104.059,181.02 102.5,182C 104.421,183.241 104.754,184.741 103.5,186.5C 102.004,182.723 100.337,182.723 98.5,186.5C 98.1667,186.167 97.8333,185.833 97.5,185.5C 98.1667,184.5 98.8333,183.5 99.5,182.5C 98.5804,180.214 98.5804,177.881 99.5,175.5 Z"/></g>
<g><path style="opacity:1" fill="#f5c582" d="M 113.5,176.5 C 115.167,176.5 116.833,176.5 118.5,176.5C 118.978,179.278 117.978,181.278 115.5,182.5C 115.833,183.167 116.167,183.833 116.5,184.5C 114.711,186.033 112.711,187.033 110.5,187.5C 110.5,186.5 110.5,185.5 110.5,184.5C 111.5,184.5 112.5,184.5 113.5,184.5C 112.37,181.803 112.37,179.137 113.5,176.5 Z"/></g>
<g><path style="opacity:1" fill="#f5bb6e" d="M 194.5,175.5 C 196.048,175.821 196.715,176.821 196.5,178.5C 198.5,178.5 200.5,178.5 202.5,178.5C 202.5,181.167 202.5,183.833 202.5,186.5C 201.5,186.5 200.5,186.5 199.5,186.5C 199.357,184.738 199.691,183.071 200.5,181.5C 200.192,180.692 199.692,180.025 199,179.5C 197.806,181.623 197.14,183.957 197,186.5C 195.658,187.902 194.824,187.569 194.5,185.5C 195.203,182.222 195.203,178.889 194.5,175.5 Z"/></g>
<g><path style="opacity:1" fill="#f4b154" d="M 248.5,178.5 C 250.465,178.948 250.798,179.948 249.5,181.5C 248.614,180.675 248.281,179.675 248.5,178.5 Z"/></g>
<g><path style="opacity:1" fill="#f6cb8f" d="M 283.5,179.5 C 284.5,179.5 285.5,179.5 286.5,179.5C 285.754,183.31 284.754,183.31 283.5,179.5 Z"/></g>
<g><path style="opacity:1" fill="#f4c077" d="M 131.5,176.5 C 132.5,176.5 133.5,176.5 134.5,176.5C 134.843,180.843 137.177,183.177 141.5,183.5C 141.5,184.5 141.5,185.5 141.5,186.5C 139.774,186.815 138.107,186.981 136.5,187C 135.91,185.491 135.244,183.991 134.5,182.5C 133.571,183.689 133.238,185.022 133.5,186.5C 132.325,186.719 131.325,186.386 130.5,185.5C 131.074,183.941 131.74,182.441 132.5,181C 131.62,179.644 131.286,178.144 131.5,176.5 Z"/></g>
<g><path style="opacity:1" fill="#f6c078" d="M 158.5,175.5 C 160.048,175.821 160.715,176.821 160.5,178.5C 166.825,178.38 168.159,181.047 164.5,186.5C 163.833,184.5 163.167,182.5 162.5,180.5C 161.5,182.5 160.5,184.5 159.5,186.5C 158.511,182.893 158.177,179.226 158.5,175.5 Z"/></g>
<g><path style="opacity:1" fill="#f2b45f" d="M 169.5,180.5 C 171.337,180.639 171.67,181.306 170.5,182.5C 169.702,182.043 169.369,181.376 169.5,180.5 Z"/></g>
<g><path style="opacity:1" fill="#f7d29f" d="M 177.5,179.5 C 178.5,179.5 179.5,179.5 180.5,179.5C 180.5,180.5 180.5,181.5 180.5,182.5C 179.5,182.5 178.5,182.5 177.5,182.5C 177.5,181.5 177.5,180.5 177.5,179.5 Z"/></g>
<g><path style="opacity:1" fill="#eeb45c" d="M 276.5,180.5 C 278.337,180.639 278.67,181.306 277.5,182.5C 276.702,182.043 276.369,181.376 276.5,180.5 Z"/></g>
<g><path style="opacity:1" fill="#f3b35b" d="M 216.5,176.5 C 218.741,177.3 219.741,178.966 219.5,181.5C 220.5,181.5 221.5,181.5 222.5,181.5C 222.402,187.373 221.402,187.706 219.5,182.5C 218.148,183.518 217.148,184.851 216.5,186.5C 216.024,183.26 216.024,179.927 216.5,176.5 Z"/></g>
<g><path style="opacity:1" fill="#f3b65f" d="M 243.5,185.5 C 243.262,183.355 242.262,181.688 240.5,180.5C 238.717,182.023 238.051,184.023 238.5,186.5C 237.307,186.03 236.64,185.03 236.5,183.5C 237.182,181.159 237.849,178.826 238.5,176.5C 241.292,176.452 243.125,177.785 244,180.5C 245.205,182.534 245.372,184.534 244.5,186.5C 243.893,186.376 243.56,186.043 243.5,185.5 Z"/></g>
<g><path style="opacity:1" fill="#faddb8" d="M 243.5,185.5 C 241.708,185.366 240.042,185.699 238.5,186.5C 238.051,184.023 238.717,182.023 240.5,180.5C 242.262,181.688 243.262,183.355 243.5,185.5 Z"/></g>
<g><path style="opacity:1" fill="#f4b662" d="M 146.5,176.5 C 147.5,176.5 148.5,176.5 149.5,176.5C 149.324,180.192 150.991,182.192 154.5,182.5C 154.349,185.718 153.516,186.051 152,183.5C 151.517,184.448 151.351,185.448 151.5,186.5C 150.5,186.5 149.5,186.5 148.5,186.5C 148.511,178.788 147.511,178.788 145.5,186.5C 145.167,185.667 144.833,184.833 144.5,184C 145.322,181.528 145.989,179.028 146.5,176.5 Z"/></g>
<g><path style="opacity:1" fill="#f5bc70" d="M 57.5,176.5 C 61.5397,177.547 63.873,180.213 64.5,184.5C 65.8333,185.167 67.1667,185.833 68.5,186.5C 66.2825,187.057 63.9491,187.057 61.5,186.5C 60.8333,181.167 60.1667,181.167 59.5,186.5C 58.5,186.5 57.5,186.5 56.5,186.5C 56.5861,184.323 57.2528,182.323 58.5,180.5C 57.7542,179.264 57.4208,177.93 57.5,176.5 Z"/></g>
<g><path style="opacity:1" fill="#9bd3a0" d="M 49.5,195.5 C 52.6248,194.521 55.9581,194.187 59.5,194.5C 59.5,195.5 59.5,196.5 59.5,197.5C 56.8333,197.5 54.1667,197.5 51.5,197.5C 53.631,196.686 55.9644,196.186 58.5,196C 55.5184,195.502 52.5184,195.335 49.5,195.5 Z"/></g>
<g><path style="opacity:1" fill="#9bd4a0" d="M 153.5,197.5 C 155.631,196.686 157.964,196.186 160.5,196C 157.183,195.502 153.85,195.335 150.5,195.5C 150.5,199.5 150.5,203.5 150.5,207.5C 153.85,207.665 157.183,207.498 160.5,207C 157.854,206.503 155.187,206.336 152.5,206.5C 152.232,204.901 152.566,203.568 153.5,202.5C 153.5,203.5 153.5,204.5 153.5,205.5C 156.167,205.5 158.833,205.5 161.5,205.5C 161.5,206.5 161.5,207.5 161.5,208.5C 157.5,208.5 153.5,208.5 149.5,208.5C 149.5,203.833 149.5,199.167 149.5,194.5C 153.5,194.5 157.5,194.5 161.5,194.5C 161.5,195.5 161.5,196.5 161.5,197.5C 158.833,197.5 156.167,197.5 153.5,197.5 Z"/></g>
<g><path style="opacity:1" fill="#73c37a" d="M 49.5,195.5 C 52.5184,195.335 55.5184,195.502 58.5,196C 55.9644,196.186 53.631,196.686 51.5,197.5C 51.5,198.5 51.5,199.5 51.5,200.5C 60.8333,201.167 60.8333,201.833 51.5,202.5C 51.5,203.5 51.5,204.5 51.5,205.5C 54.1667,205.5 56.8333,205.5 59.5,205.5C 59.5,206.5 59.5,207.5 59.5,208.5C 56.1667,208.5 52.8333,208.5 49.5,208.5C 49.5,204.167 49.5,199.833 49.5,195.5 Z"/></g>
<g><path style="opacity:1" fill="#a7d8aa" d="M 84.5,198.5 C 83.8333,198.5 83.1667,198.5 82.5,198.5C 81.0243,196.77 81.3576,195.437 83.5,194.5C 85.6424,195.437 85.9757,196.77 84.5,198.5 Z"/></g>
<g><path style="opacity:1" fill="#93cf98" d="M 113.5,194.5 C 114.5,194.5 115.5,194.5 116.5,194.5C 116.5,195.5 116.5,196.5 116.5,197.5C 115.5,197.5 114.5,197.5 113.5,197.5C 113.5,196.5 113.5,195.5 113.5,194.5 Z"/></g>
<g><path style="opacity:1" fill="#94ce97" d="M 208.5,194.5 C 209.5,194.5 210.5,194.5 211.5,194.5C 211.5,195.5 211.5,196.5 211.5,197.5C 210.5,197.5 209.5,197.5 208.5,197.5C 208.5,196.5 208.5,195.5 208.5,194.5 Z"/></g>
<g><path style="opacity:1" fill="#95d39b" d="M 253.5,194.5 C 254.5,194.5 255.5,194.5 256.5,194.5C 256.5,195.5 256.5,196.5 256.5,197.5C 255.5,197.5 254.5,197.5 253.5,197.5C 253.5,196.5 253.5,195.5 253.5,194.5 Z"/></g>
<g><path style="opacity:1" fill="#90cf96" d="M 265.5,194.5 C 266.5,194.5 267.5,194.5 268.5,194.5C 268.5,195.5 268.5,196.5 268.5,197.5C 267.5,197.5 266.5,197.5 265.5,197.5C 265.5,196.5 265.5,195.5 265.5,194.5 Z"/></g>
<g><path style="opacity:1" fill="#6bc173" d="M 78.5,199.5 C 79.0356,202.698 78.369,205.365 76.5,207.5C 76.5,205.167 76.5,202.833 76.5,200.5C 75.1667,200.5 73.8333,200.5 72.5,200.5C 72.5,203.167 72.5,205.833 72.5,208.5C 71.5,208.5 70.5,208.5 69.5,208.5C 69.5,204.167 69.5,199.833 69.5,195.5C 71.817,194.466 72.817,195.466 72.5,198.5C 74.6208,198.325 76.6208,198.659 78.5,199.5 Z"/></g>
<g><path style="opacity:1" fill="#bae2be" d="M 153.5,197.5 C 155.508,199.083 157.841,200.083 160.5,200.5C 157.833,200.5 155.167,200.5 152.5,200.5C 152.263,199.209 152.596,198.209 153.5,197.5 Z"/></g>
<g><path style="opacity:1" fill="#73c379" d="M 194.5,195.5 C 197.457,197.458 198.124,200.125 196.5,203.5C 196.79,205.044 197.456,206.377 198.5,207.5C 196.955,208.452 195.288,208.785 193.5,208.5C 193.927,205.212 193.26,202.212 191.5,199.5C 192.91,198.431 193.91,197.097 194.5,195.5 Z"/></g>
<g><path style="opacity:1" fill="#8bcc91" d="M 262.5,195.5 C 261.206,197.048 260.539,199.048 260.5,201.5C 260.539,203.952 261.206,205.952 262.5,207.5C 261.791,208.404 260.791,208.737 259.5,208.5C 259.5,203.833 259.5,199.167 259.5,194.5C 260.791,194.263 261.791,194.596 262.5,195.5 Z"/></g>
<g><path style="opacity:1" fill="#5ebc66" d="M 262.5,195.5 C 262.5,199.5 262.5,203.5 262.5,207.5C 261.206,205.952 260.539,203.952 260.5,201.5C 260.539,199.048 261.206,197.048 262.5,195.5 Z"/></g>
<g><path style="opacity:1" fill="#6fc176" d="M 282.5,211.5 C 281.127,211.657 279.793,211.49 278.5,211C 279.416,210.722 280.082,210.222 280.5,209.5C 280.477,207.073 279.977,204.74 279,202.5C 277.89,200.963 276.39,200.297 274.5,200.5C 274.16,203.144 274.827,205.477 276.5,207.5C 274.994,208.747 273.494,208.747 272,207.5C 271.003,203.428 270.836,199.428 271.5,195.5C 272.5,195.5 273.5,195.5 274.5,195.5C 274.5,196.5 274.5,197.5 274.5,198.5C 278.739,197.789 281.406,199.456 282.5,203.5C 283.95,202.345 284.95,200.845 285.5,199C 286.483,198.409 287.15,198.743 287.5,200C 285.681,203.801 284.014,207.634 282.5,211.5 Z"/></g>
<g><path style="opacity:1" fill="#61bd6a" d="M 153.5,197.5 C 152.596,198.209 152.263,199.209 152.5,200.5C 155.167,200.5 157.833,200.5 160.5,200.5C 158.721,202.344 156.388,203.01 153.5,202.5C 152.566,203.568 152.232,204.901 152.5,206.5C 155.187,206.336 157.854,206.503 160.5,207C 157.183,207.498 153.85,207.665 150.5,207.5C 150.5,203.5 150.5,199.5 150.5,195.5C 153.85,195.335 157.183,195.502 160.5,196C 157.964,196.186 155.631,196.686 153.5,197.5 Z"/></g>
<g><path style="opacity:1" fill="#6dbf75" d="M 215.5,198.5 C 218.665,197.964 221.331,198.797 223.5,201C 221.203,201.018 218.869,200.851 216.5,200.5C 216.5,202.5 216.5,204.5 216.5,206.5C 218.57,206.551 220.403,205.885 222,204.5C 223.726,205.648 223.559,206.815 221.5,208C 216.594,209.756 213.927,208.089 213.5,203C 213.519,201.167 214.185,199.667 215.5,198.5 Z"/></g>
<g><path style="opacity:1" fill="#e0f1e1" d="M 243.5,194.5 C 244.022,196.219 245.022,197.552 246.5,198.5C 247.299,201.43 247.632,204.43 247.5,207.5C 245.766,206.438 244.099,206.438 242.5,207.5C 243.373,203.232 243.706,198.898 243.5,194.5 Z"/></g>
<g><path style="opacity:1" fill="#b3ddb7" d="M 82.5,198.5 C 83.1667,210.5 83.8333,210.5 84.5,198.5C 85.4794,201.625 85.8128,204.958 85.5,208.5C 84.1667,208.5 82.8333,208.5 81.5,208.5C 81.1872,204.958 81.5206,201.625 82.5,198.5 Z"/></g>
<g><path style="opacity:1" fill="#5dbc64" d="M 82.5,198.5 C 83.1667,198.5 83.8333,198.5 84.5,198.5C 83.8333,210.5 83.1667,210.5 82.5,198.5 Z"/></g>
<g><path style="opacity:1" fill="#6abf72" d="M 113.5,198.5 C 114.5,198.5 115.5,198.5 116.5,198.5C 116.5,201.833 116.5,205.167 116.5,208.5C 115.5,208.5 114.5,208.5 113.5,208.5C 113.5,205.167 113.5,201.833 113.5,198.5 Z"/></g>
<g><path style="opacity:1" fill="#60bc68" d="M 135.5,198.5 C 137.292,198.366 138.958,198.699 140.5,199.5C 140.813,202.247 140.48,204.914 139.5,207.5C 138.832,205.031 138.165,202.698 137.5,200.5C 136.833,199.833 136.167,199.167 135.5,198.5 Z"/></g>
<g><path style="opacity:1" fill="#70c278" d="M 208.5,198.5 C 209.5,198.5 210.5,198.5 211.5,198.5C 211.5,201.833 211.5,205.167 211.5,208.5C 210.5,208.5 209.5,208.5 208.5,208.5C 208.5,205.167 208.5,201.833 208.5,198.5 Z"/></g>
<g><path style="opacity:1" fill="#e0f0df" d="M 69.5,195.5 C 69.5,199.833 69.5,204.167 69.5,208.5C 68.8333,208.5 68.1667,208.5 67.5,208.5C 66.6532,206.971 65.9865,205.304 65.5,203.5C 65.9865,201.696 66.6532,200.029 67.5,198.5C 68.1667,197.5 68.8333,196.5 69.5,195.5 Z"/></g>
<g><path style="opacity:1" fill="#6fc277" d="M 100.5,198.5 C 103.187,198.336 105.854,198.503 108.5,199C 111.987,201.451 112.32,204.284 109.5,207.5C 107.591,208.348 105.591,208.682 103.5,208.5C 103.5,209.833 103.5,211.167 103.5,212.5C 102.5,212.5 101.5,212.5 100.5,212.5C 100.5,207.833 100.5,203.167 100.5,198.5 Z"/></g>
<g><path style="opacity:1" fill="#e8f6e9" d="M 104.5,200.5 C 105.833,200.5 107.167,200.5 108.5,200.5C 108.66,202.199 108.494,203.866 108,205.5C 103.633,206.575 102.466,204.908 104.5,200.5 Z"/></g>
<g><path style="opacity:1" fill="#6ec075" d="M 67.5,198.5 C 66.6532,200.029 65.9865,201.696 65.5,203.5C 65.9865,205.304 66.6532,206.971 67.5,208.5C 65.8561,208.714 64.3561,208.38 63,207.5C 62.7305,204.776 62.2305,202.109 61.5,199.5C 62.0256,197.77 63.0256,196.436 64.5,195.5C 65.1411,196.993 66.1411,197.993 67.5,198.5 Z"/></g>
<g><path style="opacity:1" fill="#73c37a" d="M 119.5,198.5 C 122.448,198.223 125.281,198.556 128,199.5C 128.498,202.482 128.665,205.482 128.5,208.5C 125.223,208.784 122.057,208.451 119,207.5C 118.289,205.633 118.789,204.133 120.5,203C 122.256,202.798 123.922,202.298 125.5,201.5C 123.865,200.319 122.198,200.319 120.5,201.5C 119.614,200.675 119.281,199.675 119.5,198.5 Z"/></g>
<g><path style="opacity:1" fill="#a3d7a7" d="M 131.5,198.5 C 131.183,201.572 131.516,204.572 132.5,207.5C 133.715,204.38 134.049,201.38 133.5,198.5C 134.167,198.5 134.833,198.5 135.5,198.5C 136.167,199.167 136.833,199.833 137.5,200.5C 136.504,200.414 135.671,200.748 135,201.5C 134.503,203.81 134.337,206.143 134.5,208.5C 133.167,208.5 131.833,208.5 130.5,208.5C 130.187,204.958 130.521,201.625 131.5,198.5 Z"/></g>
<g><path style="opacity:1" fill="#a9d8ae" d="M 140.5,199.5 C 141.477,202.287 141.81,205.287 141.5,208.5C 140.167,208.5 138.833,208.5 137.5,208.5C 137.5,205.833 137.5,203.167 137.5,200.5C 138.165,202.698 138.832,205.031 139.5,207.5C 140.48,204.914 140.813,202.247 140.5,199.5 Z"/></g>
<g><path style="opacity:1" fill="#adddb0" d="M 170.5,199.5 C 169.781,201.764 169.448,204.097 169.5,206.5C 168.853,205.726 168.52,204.726 168.5,203.5C 168.34,201.645 169.007,200.312 170.5,199.5 Z"/></g>
<g><path style="opacity:1" fill="#a0d8a6" d="M 178.5,200.5 C 179.434,201.568 179.768,202.901 179.5,204.5C 176.612,203.99 174.279,204.656 172.5,206.5C 171.596,205.791 171.263,204.791 171.5,203.5C 173.833,203.5 176.167,203.5 178.5,203.5C 178.5,202.5 178.5,201.5 178.5,200.5 Z"/></g>
<g><path style="opacity:1" fill="#6abf72" d="M 265.5,198.5 C 266.5,198.5 267.5,198.5 268.5,198.5C 268.5,201.833 268.5,205.167 268.5,208.5C 267.5,208.5 266.5,208.5 265.5,208.5C 265.5,205.167 265.5,201.833 265.5,198.5 Z"/></g>
<g><path style="opacity:1" fill="#95d29f" d="M 166.5,195.5 C 165.206,197.048 164.539,199.048 164.5,201.5C 164.539,203.952 165.206,205.952 166.5,207.5C 165.791,208.404 164.791,208.737 163.5,208.5C 163.5,203.833 163.5,199.167 163.5,194.5C 164.791,194.263 165.791,194.596 166.5,195.5 Z"/></g>
<g><path style="opacity:1" fill="#5ebb67" d="M 166.5,195.5 C 166.5,199.5 166.5,203.5 166.5,207.5C 165.206,205.952 164.539,203.952 164.5,201.5C 164.539,199.048 165.206,197.048 166.5,195.5 Z"/></g>
<g><path style="opacity:1" fill="#67be6e" d="M 178.5,200.5 C 178.5,201.5 178.5,202.5 178.5,203.5C 176.167,203.5 173.833,203.5 171.5,203.5C 171.263,204.791 171.596,205.791 172.5,206.5C 174.599,205.769 176.599,205.769 178.5,206.5C 175.4,209.044 172.4,209.044 169.5,206.5C 169.448,204.097 169.781,201.764 170.5,199.5C 173.397,198.227 176.063,198.561 178.5,200.5 Z"/></g>
<g><path style="opacity:1" fill="#e8f4e8" d="M 172.5,200.5 C 173.675,200.281 174.675,200.614 175.5,201.5C 173.948,202.798 172.948,202.465 172.5,200.5 Z"/></g>
<g><path style="opacity:1" fill="#a9daac" d="M 200.5,198.5 C 200.183,201.572 200.516,204.572 201.5,207.5C 202.169,205.369 202.835,203.369 203.5,201.5C 203.5,203.833 203.5,206.167 203.5,208.5C 202.167,208.5 200.833,208.5 199.5,208.5C 199.187,204.958 199.521,201.625 200.5,198.5 Z"/></g>
<g><path style="opacity:1" fill="#62bd6d" d="M 200.5,198.5 C 202.604,198.201 204.604,198.534 206.5,199.5C 205.398,200.176 204.398,200.842 203.5,201.5C 202.835,203.369 202.169,205.369 201.5,207.5C 200.516,204.572 200.183,201.572 200.5,198.5 Z"/></g>
<g><path style="opacity:1" fill="#6cc173" d="M 89.5,198.5 C 92.6021,198.154 95.4355,198.821 98,200.5C 99.3737,205.428 97.5403,208.094 92.5,208.5C 87.8487,207.807 86.3487,205.141 88,200.5C 88.7172,199.956 89.2172,199.289 89.5,198.5 Z"/></g>
<g><path style="opacity:1" fill="#eef7ee" d="M 90.5,200.5 C 95.1585,200.015 96.4919,201.848 94.5,206C 93.2068,206.49 91.8734,206.657 90.5,206.5C 90.5,204.5 90.5,202.5 90.5,200.5 Z"/></g>
<g><path style="opacity:1" fill="#d8efdc" d="M 121.5,204.5 C 122.978,204.238 124.311,204.571 125.5,205.5C 124.833,205.833 124.167,206.167 123.5,206.5C 122.287,206.253 121.62,205.586 121.5,204.5 Z"/></g>
<g><path style="opacity:1" fill="#5fbb66" d="M 131.5,198.5 C 132.167,198.5 132.833,198.5 133.5,198.5C 134.049,201.38 133.715,204.38 132.5,207.5C 131.516,204.572 131.183,201.572 131.5,198.5 Z"/></g>
<g><path style="opacity:1" fill="#78c680" d="M 247.5,207.5 C 247.632,204.43 247.299,201.43 246.5,198.5C 247.048,196.468 248.381,195.468 250.5,195.5C 250.74,199.129 251.074,202.795 251.5,206.5C 252.086,206.709 252.586,207.043 253,207.5C 253.498,204.518 253.665,201.518 253.5,198.5C 254.5,198.5 255.5,198.5 256.5,198.5C 256.5,201.833 256.5,205.167 256.5,208.5C 253.287,208.81 250.287,208.477 247.5,207.5 Z"/></g>
<g><path style="opacity:1" fill="#78c57f" d="M 183.5,198.5 C 186.157,198.162 188.49,198.829 190.5,200.5C 188.599,201.231 186.599,201.231 184.5,200.5C 184.5,202.5 184.5,204.5 184.5,206.5C 186.277,206.214 187.944,205.547 189.5,204.5C 190.167,204.833 190.833,205.167 191.5,205.5C 188.492,208.968 185.158,209.301 181.5,206.5C 179.836,203.09 180.503,200.423 183.5,198.5 Z"/></g>
<g><path style="opacity:1" fill="#6cc073" d="M 243.5,194.5 C 243.706,198.898 243.373,203.232 242.5,207.5C 239.332,208.792 236.165,208.792 233,207.5C 231.646,203.637 231.146,199.637 231.5,195.5C 232.5,195.5 233.5,195.5 234.5,195.5C 234.335,198.85 234.502,202.183 235,205.5C 236.667,206.833 238.333,206.833 240,205.5C 240.499,201.848 240.665,198.182 240.5,194.5C 241.5,194.5 242.5,194.5 243.5,194.5 Z"/></g>
<g><path style="opacity:1" fill="#95d09a" d="M 78.5,199.5 C 79.4767,202.287 79.81,205.287 79.5,208.5C 78.209,208.737 77.209,208.404 76.5,207.5C 78.369,205.365 79.0356,202.698 78.5,199.5 Z"/></g>
<g><path style="opacity:1" fill="#aad9ab" d="M 280.5,209.5 C 280.082,210.222 279.416,210.722 278.5,211C 279.793,211.49 281.127,211.657 282.5,211.5C 281.081,212.451 279.415,212.784 277.5,212.5C 277.5,211.5 277.5,210.5 277.5,209.5C 278.5,209.5 279.5,209.5 280.5,209.5 Z"/></g>
</svg>
