<svg width="362" height="91" viewBox="0 0 362 91" fill="none" xmlns="http://www.w3.org/2000/svg">
<path fill-rule="evenodd" clip-rule="evenodd" d="M220 0.955C220 1.48 218.875 3.034 217.5 4.409C214.721 7.188 214.292 10.649 216.372 13.495C217.557 15.115 217.489 15.79 215.876 18.436C213.176 22.863 213.39 26 216.392 26C218.165 26 218.961 25.291 219.472 23.256C221 17.167 225 17.071 225 23.122C225 25.68 225.348 26 228.131 26C231.189 26 231.248 25.913 230.661 22.25C230.331 20.188 229.164 17.767 228.068 16.871C226.158 15.308 226.15 15.175 227.867 13.621C228.852 12.729 230.41 12 231.329 12C232.333 12 233 11.202 233 10C233 8.9 232.506 8 231.901 8C230.621 8 225 2.212 225 0.894C225 0.402 223.875 0 222.5 0C221.125 0 220 0.43 220 0.955ZM163 3.531C163 4.924 163.675 6.322 164.5 6.638C165.325 6.955 166 8.066 166 9.107C166 10.46 165.286 11 163.5 11C161.5 11 161 11.5 161 13.5C161 15.5 161.5 16 163.5 16C165.833 16 166 16.333 166 21C166 25.889 166.067 26 169 26C171.933 26 172 25.889 172 21C172 16.333 172.167 16 174.5 16C176.5 16 177 15.5 177 13.5C177 11.5 176.5 11 174.5 11C172.25 11 172 10.6 172 7C172 3.667 171.667 3 170 3C168.9 3 168 2.55 168 2C168 1.45 166.875 1 165.5 1C163.492 1 163 1.498 163 3.531ZM304.843 3.028C303.819 3.626 303.386 4.76 303.71 5.998C304.013 7.157 303.741 8 303.066 8C301.14 8 299 14.564 299 20.468C299 25.908 299.048 26 301.905 26C304.684 26 304.788 25.838 304.309 22.25C303.624 17.119 305.186 11.588 307.443 11.153C310.104 10.641 310.968 12.737 310.985 19.75C310.999 25.746 311.102 26 313.5 26C315.938 26 316 25.818 316 18.723C316 11.334 314.375 7 311.604 7C310.898 7 309.808 5.875 309.182 4.5C307.939 1.773 307.341 1.57 304.843 3.028ZM112.773 4.75C109.696 8.254 109.77 10.691 113.191 18.454C115.888 24.573 116.916 25.965 118.75 25.981C121.424 26.004 121.679 23.826 119.494 19.636C117.576 15.959 117.608 15.741 119.948 16.483C121.423 16.952 122.273 16.373 123.448 14.101C125.41 10.307 125.409 8.029 123.443 5.223C121.472 2.408 115.079 2.125 112.773 4.75ZM134 6.5C134 9.09 134.43 10 135.655 10C137.162 10 137.154 10.173 135.56 11.934C133.523 14.185 131.107 20.505 131.044 23.75C131.008 25.593 131.543 26 134 26C136.797 26 137.001 25.747 137.015 22.25C137.047 14.399 141.386 14.306 142.637 22.13C143.246 25.939 143.325 26 147.628 26C151.333 26 152 25.695 152 24C152 22.694 151.333 22 150.079 22C148.76 22 147.953 21.064 147.503 19.012C147.142 17.369 145.82 15.217 144.565 14.229C142.789 12.833 142.387 11.72 142.755 9.217C143.159 6.46 142.925 6 141.113 6C139.901 6 139 5.36 139 4.5C139 3.567 138.056 3 136.5 3C134.31 3 134 3.433 134 6.5ZM189.073 5.635C186.295 9.166 186.439 10.796 190.25 18.991C192.858 24.599 193.945 25.982 195.75 25.99C198.381 26.002 198.66 23.778 196.5 20C194.665 16.791 194.65 15.928 196.438 16.615C197.23 16.918 198.68 16.229 199.661 15.083C200.642 13.938 202.244 13 203.222 13C204.333 13 205 12.25 205 11C205 9.889 204.333 9 203.5 9C202.675 9 202 8.55 202 8C202 5.767 197.889 3 194.573 3C192.061 3 190.591 3.704 189.073 5.635ZM245.4 3.765C243.807 4.829 242 8.561 242 10.785C242 11.84 243.112 14.794 244.472 17.351C246.407 20.991 246.624 22 245.472 22C244.662 22 244 22.9 244 24C244 25.704 244.667 26 248.5 26C253.46 26 253.685 25.576 251.5 20.346C249.756 16.172 249.681 15.685 250.896 16.436C251.389 16.74 252.829 16.15 254.096 15.123C257.073 12.713 257.314 6.434 254.509 4.383C252.491 2.907 247.22 2.55 245.4 3.765ZM273 5.5C273 7.598 273.471 8 275.929 8H278.859L276.929 14.747C274.272 24.04 274.371 26 277.5 26C278.875 26 280 25.468 280 24.818C280 24.168 280.942 20.144 282.094 15.875C283.99 8.849 284.439 8.086 286.844 7.807C288.719 7.59 289.594 6.838 289.82 5.25C290.13 3.067 289.885 3 281.57 3C273.095 3 273 3.028 273 5.5ZM332.709 3.624C332.319 4.014 332 5.833 332 7.667C332 10.72 331.743 11 328.93 11C326.319 11 325.909 11.336 326.18 13.25C326.409 14.861 327.281 15.59 329.25 15.816C332.416 16.181 333.016 19.22 330.476 22.027C328.768 23.913 329.47 27 331.607 27C333.638 27 337 23.31 337 21.082C337 17.646 338.168 16 340.607 16C342.493 16 343 15.47 343 13.5C343 11.516 342.496 11 340.56 11C338.463 11 338.077 10.474 337.81 7.25C337.571 4.363 337.03 3.433 335.459 3.208C334.336 3.047 333.099 3.235 332.709 3.624ZM116 10.5C116 14.421 117.363 15.058 119.042 11.922C120.381 9.42 119.638 7 117.531 7C116.448 7 116 8.024 116 10.5ZM192.545 8.859C191.877 10.963 192.779 14 194.072 14C195.403 14 197.218 10.01 196.608 8.422C195.828 6.388 193.241 6.666 192.545 8.859ZM220.332 8.578C219.999 9.445 220.419 10.848 221.266 11.694C222.651 13.08 222.919 13.02 223.949 11.096C224.578 9.92 224.82 8.518 224.487 7.979C223.548 6.459 221.004 6.825 220.332 8.578ZM247.465 8.057C246.362 9.841 247.873 13.986 249.412 13.396C250.959 12.802 251.9 10.171 251.254 8.25C250.741 6.726 248.362 6.605 247.465 8.057Z" fill="#F4AF0E"/>
<path fill-rule="evenodd" clip-rule="evenodd" d="M87.552 19.75C86.489 25.691 76.905 69.084 76.317 70.617C75.905 71.69 77.003 72 81.21 72H86.633L88.401 62.615C91.258 47.445 95.503 40.337 101.199 41.187C105.565 41.839 105.712 44.192 102.232 57.759C100.435 64.767 98.973 70.861 98.982 71.302C98.992 71.744 101.323 71.969 104.163 71.802L109.326 71.5L112.105 59C115.488 43.78 115.561 41.982 112.927 38.635C110.005 34.92 102.124 34.872 96.732 38.536C94.679 39.931 93.001 40.718 93.001 40.286C93.003 39.113 97.753 19.773 98.537 17.75C99.131 16.213 98.544 16 93.718 16H88.223L87.552 19.75ZM10.564 23.25C10.303 24.488 8.94795 31.575 7.55195 39C6.15595 46.425 3.94795 56.888 2.64595 62.25L0.277954 72H14.639C22.694 72 29 71.597 29 71.082C29 70.577 29.273 69.452 29.607 68.582C30.131 67.215 29.05 67 21.67 67H13.126L13.689 63.25C13.999 61.188 14.785 56.8 15.435 53.5L16.617 47.5L25.219 47.587L33.821 47.675L34.236 44.845L34.651 42.015L26.211 42.664L17.771 43.313L18.508 38.954C18.913 36.557 19.773 32.774 20.419 30.548L21.593 26.5L30.01 26.366C38.197 26.237 38.447 26.161 39.127 23.616L39.827 21H25.433C11.312 21 11.029 21.043 10.564 23.25ZM59.741 26.209C55.503 28.033 54.916 28.675 54.372 32.074C53.863 35.257 53.327 35.941 51.14 36.195C47.434 36.626 46.897 40 50.534 40C52.392 40 53.053 40.42 52.689 41.369C52.4 42.122 51.147 47.635 49.905 53.619C47.321 66.071 47.69 69.271 51.965 71.482C55.467 73.293 57.899 73.39 61.685 71.87L64.5 70.739L61.357 69.869C59.628 69.39 57.971 68.367 57.675 67.596C57.215 66.397 61.134 44.896 62.477 41.25C62.73 40.563 64.253 40 65.862 40C67.606 40 69.031 39.362 69.393 38.418C70.301 36.051 70.248 36 66.869 36C63.474 36 63.489 36.108 65.61 26.75C66.339 23.533 66.027 23.505 59.741 26.209ZM352.025 26.125C346.92 28.388 346.037 29.426 346.015 33.184C346.003 35.361 345.483 35.927 343.259 36.184C339.614 36.604 338.777 40 342.318 40H344.783L342.868 48.25C339.847 61.257 339.463 66.532 341.33 69.38C343.155 72.167 347.6 73.466 352 72.5C355.303 71.775 356.099 70 353.122 70C348.886 70 348.689 67.849 351.617 53.552L354.393 40H357.58C359.926 40 360.905 39.472 361.29 38C361.735 36.297 361.32 36 358.497 36H355.181L356.579 30.75C358.681 22.852 358.902 23.076 352.025 26.125ZM225.5 35.723C224.4 36.004 222.211 37.148 220.635 38.267C217.9 40.208 217.797 40.214 218.373 38.4C218.91 36.708 218.434 36.5 214.034 36.5H209.091L208.458 40.5C207.699 45.297 199.136 86.757 198.389 89.25C197.94 90.752 198.568 91 202.821 91C207.767 91 207.779 90.992 208.423 87.25C209.364 81.781 212.773 65.84 215.176 55.67C217.603 45.404 220.571 41 225.066 41C229.218 41 231.45 44.739 230.597 50.266C229.595 56.757 227.162 63.449 224.933 65.841C221.989 69.002 217.452 68.715 215.572 65.25C213.874 62.12 213.501 63.558 214.994 67.483C216.464 71.351 222.287 73.53 227.212 72.055C237.491 68.975 244.07 53.284 239.584 42.546C237.447 37.432 231.016 34.316 225.5 35.723ZM136.429 37.5C136.254 38.05 135.376 42.325 134.476 47C133.576 51.675 131.976 58.95 130.92 63.167C129.864 67.383 129 71.096 129 71.417C129 71.737 131.403 72 134.34 72H139.68L140.97 64.75C141.679 60.763 143.326 53.084 144.63 47.686C145.933 42.289 147 37.564 147 37.186C147 36.091 136.779 36.394 136.429 37.5ZM167.007 37.593C159.262 40.952 154.631 48.253 154.571 57.199C154.507 66.887 160.301 72.51 170.323 72.484C178.025 72.464 184.107 69.357 188.391 63.255C194.469 54.598 192.538 41.381 184.649 37.638C180.36 35.602 171.649 35.58 167.007 37.593ZM264.5 37.659C256.839 41.69 252.06 49.104 252.022 57.016C251.946 72.693 271.271 78.457 283.364 66.364C287.85 61.877 289.412 58.056 289.458 51.456C289.506 44.552 287.744 41.034 282.696 37.956C278.697 35.518 268.873 35.357 264.5 37.659ZM311 36.704C307.934 37.819 304.005 42.455 303.402 45.669C302.331 51.377 303.61 53.781 309.776 57.651C315.334 61.139 318 63.571 318 65.152C318 66.6 313.625 70 311.762 70C308.764 70 304.197 67.196 303.472 64.91C302.649 62.319 301.43 63.456 300.552 67.633C299.95 70.494 300.171 70.864 303.095 71.883C313.24 75.42 325 69.648 325 61.133C325 56.175 322.409 52.919 315.5 49.19C311.227 46.884 310.5 46.06 310.5 43.52C310.5 41.179 311.084 40.343 313.25 39.581C316.828 38.323 321.19 39.826 322.487 42.764C323.849 45.849 324.787 45.565 325.84 41.75C326.538 39.223 326.391 38.222 325.178 37.25C323.638 36.016 313.919 35.642 311 36.704ZM173.055 39.267C169.584 41.023 167.166 45.689 165.443 53.951C164.321 59.333 164.208 62.058 164.987 64.95C166.055 68.918 167.457 70 171.531 70C178.826 70 185.277 47.436 179.927 40.635C177.607 37.685 176.583 37.481 173.055 39.267ZM269.166 40.514C265.63 43.49 263.108 50.197 262.404 58.5C261.756 66.151 263.284 69.377 267.763 69.813C273.994 70.418 279.244 60.665 279.414 48.166C279.489 42.66 279.191 41.581 277.139 39.916C274.039 37.4 272.751 37.497 269.166 40.514Z" fill="#2C2C7C"/>
</svg>

