<svg width="70" height="70" viewBox="0 0 70 70" fill="none" xmlns="http://www.w3.org/2000/svg">
    <path d="M64.213 70H5.80903C1.36279 70 -1.42553 65.1213 0.75991 61.1877L17.7913 30.8174L28.9445 57.433C29.9996 59.9617 32.4362 61.5964 35.1492 61.5964C37.9626 61.5964 40.4244 59.8595 41.4292 57.2031L51.452 30.7152L51.7284 30L69.2119 61.1622C71.4476 65.1213 68.6592 70 64.213 70Z" fill="#FF971D"/>
    <path d="M49.9119 20.906C49.8132 21.1065 48.2333 25.2175 48.2333 25.2175L46.8262 28.9024L46.6781 29.2784L37.0014 54.897C36.8039 55.4485 36.3843 55.7995 35.9153 55.9248C35.8412 55.9499 35.7671 55.9749 35.6931 55.9749C35.5943 55.9749 35.5203 56 35.4215 56C35.3475 56 35.2734 56 35.1747 55.9749C35.1006 55.9749 35.0266 55.9499 34.9525 55.9248C34.8785 55.8997 34.8044 55.8747 34.7304 55.8496C34.5576 55.7744 34.3848 55.6491 34.2366 55.4987C34.212 55.4736 34.1873 55.4485 34.1379 55.3984C34.0885 55.3232 34.0392 55.273 33.9898 55.1978C33.9404 55.1226 33.891 55.0474 33.8664 54.9472L22.9554 28.9275L20.2647 22.4852C17.7468 16.4942 19.0551 9.65085 23.5972 5.0385L24.0169 4.61235C24.165 4.46195 24.2884 4.33662 24.4365 4.18621C24.5846 4.06088 24.7327 3.91047 24.8809 3.78514C25.0783 3.60967 25.2758 3.4342 25.498 3.2838C25.7695 3.08326 26.0411 2.88272 26.3126 2.68219C26.3867 2.63205 26.4854 2.55685 26.5595 2.50671C26.7323 2.38138 26.9051 2.28111 27.1025 2.18084C27.5469 1.93017 27.9912 1.6795 28.4602 1.4539C28.6824 1.35363 28.9293 1.25336 29.1514 1.15309C31.0275 0.376007 33.0271 0 35.0513 0C36.409 0 37.7667 0.17547 39.0997 0.52641C39.3465 0.601611 39.5934 0.651746 39.8156 0.726948C40.0624 0.802149 40.2846 0.87735 40.5314 0.977619C42.531 1.72963 44.4071 2.90779 46.0116 4.51209C47.789 6.29185 49.0726 8.34736 49.8379 10.5783C50.4797 12.4082 49.0726 14.2883 47.1965 14.2883C47.1225 14.2883 47.0484 14.2883 46.9497 14.2883C46.9003 14.2883 46.8262 14.2883 46.7769 14.2632C46.6781 14.2632 46.5794 14.2632 46.4559 14.2381C46.3819 14.2381 46.3078 14.2381 46.2338 14.2381H46.135C45.8882 14.2381 45.666 14.2131 45.4438 14.1379C45.3945 14.1379 45.3451 14.1128 45.2957 14.0877C44.7033 13.9123 44.1602 13.5112 43.8146 12.9848C43.7406 12.8845 43.6912 12.7842 43.6418 12.684C43.5924 12.6088 43.5431 12.5085 43.5184 12.4082C43.074 11.2301 42.3582 10.1773 41.3954 9.22471C39.6428 7.47001 37.347 6.59266 35.0513 6.59266C32.7308 6.59266 30.4104 7.49508 28.6577 9.27485L28.2381 9.70099C25.6214 12.3581 24.8562 16.3438 26.3126 19.803L30.2376 29.2032L35.1747 41.0099L39.6428 29.2032L40.9511 25.769L35.6684 25.769C35.15 25.769 34.681 25.4432 34.4835 24.9669L32.8789 20.8559C32.558 20.0036 33.1752 19.1012 34.0638 19.1012L48.727 19.1012C49.6404 19.1513 50.2328 20.0788 49.9119 20.906Z" fill="#FF971D"/>
</svg>

