<svg width="215" height="214" viewBox="0 0 215 214" fill="none" xmlns="http://www.w3.org/2000/svg">
<path d="M96.4897 9.47322C102.82 4.02696 112.18 4.02696 118.51 9.47322V9.47322C123 13.3362 129.212 14.5551 134.836 12.6992V12.6992C142.746 10.0892 151.414 13.648 155.165 21.0849V21.0849C157.829 26.3659 163.112 29.8628 169.011 30.2898V30.2898C177.304 30.8901 183.963 37.4871 184.569 45.7792V45.7792C184.999 51.6711 188.53 56.9143 193.814 59.555V59.555C201.251 63.2714 204.866 71.9116 202.239 79.7994V79.7994C200.373 85.4022 201.605 91.5761 205.477 96.0348V96.0348C210.938 102.323 210.938 111.677 205.477 117.965V117.965C201.605 122.424 200.373 128.598 202.239 134.201V134.201C204.866 142.088 201.251 150.729 193.814 154.445V154.445C188.53 157.086 184.999 162.329 184.569 168.221V168.221C183.963 176.513 177.304 183.11 169.011 183.71V183.71C163.112 184.137 157.829 187.634 155.165 192.915V192.915C151.414 200.352 142.746 203.911 134.836 201.301V201.301C129.212 199.445 123 200.664 118.51 204.527V204.527C112.18 209.973 102.82 209.973 96.4897 204.527V204.527C92 200.664 85.7884 199.445 80.1639 201.301V201.301C72.2539 203.911 63.5857 200.352 59.8346 192.915V192.915C57.1708 187.634 51.8881 184.137 45.9888 183.71V183.71C37.6963 183.11 31.0369 176.513 30.4311 168.221V168.221C30.0006 162.329 26.4704 157.086 21.1859 154.445V154.445C13.749 150.729 10.1343 142.088 12.7613 134.201V134.201C14.6274 128.598 13.3951 122.424 9.52285 117.965V117.965C4.06201 111.677 4.06201 102.323 9.52285 96.0348V96.0348C13.3951 91.5761 14.6274 85.4022 12.7613 79.7994V79.7994C10.1343 71.9116 13.749 63.2714 21.1859 59.555V59.555C26.4704 56.9143 30.0006 51.671 30.4311 45.7792V45.7792C31.0369 37.4871 37.6963 30.8901 45.9888 30.2898V30.2898C51.8881 29.8628 57.1708 26.3659 59.8346 21.0849V21.0849C63.5857 13.648 72.2539 10.0892 80.1639 12.6992V12.6992C85.7884 14.5551 92 13.3362 96.4897 9.47322V9.47322Z" fill="#FFA818"/>
<g filter="url(#filter0_d_10_124)">
<circle cx="107" cy="107" r="77" fill="#ECF0FF"/>
</g>
<path d="M83 108L99.3379 124L132 92" stroke="#FFA818" stroke-width="5.42714" stroke-linecap="round" stroke-linejoin="round"/>
<path d="M96.4897 9.47322C102.82 4.02696 112.18 4.02696 118.51 9.47322V9.47322C123 13.3362 129.212 14.5551 134.836 12.6992V12.6992C142.746 10.0892 151.414 13.648 155.165 21.0849V21.0849C157.829 26.3659 163.112 29.8628 169.011 30.2898V30.2898C177.304 30.8901 183.963 37.4871 184.569 45.7792V45.7792C184.999 51.6711 188.53 56.9143 193.814 59.555V59.555C201.251 63.2714 204.866 71.9116 202.239 79.7994V79.7994C200.373 85.4022 201.605 91.5761 205.477 96.0348V96.0348C210.938 102.323 210.938 111.677 205.477 117.965V117.965C201.605 122.424 200.373 128.598 202.239 134.201V134.201C204.866 142.088 201.251 150.729 193.814 154.445V154.445C188.53 157.086 184.999 162.329 184.569 168.221V168.221C183.963 176.513 177.304 183.11 169.011 183.71V183.71C163.112 184.137 157.829 187.634 155.165 192.915V192.915C151.414 200.352 142.746 203.911 134.836 201.301V201.301C129.212 199.445 123 200.664 118.51 204.527V204.527C112.18 209.973 102.82 209.973 96.4897 204.527V204.527C92 200.664 85.7884 199.445 80.1639 201.301V201.301C72.2539 203.911 63.5857 200.352 59.8346 192.915V192.915C57.1708 187.634 51.8881 184.137 45.9888 183.71V183.71C37.6963 183.11 31.0369 176.513 30.4311 168.221V168.221C30.0006 162.329 26.4704 157.086 21.1859 154.445V154.445C13.749 150.729 10.1343 142.088 12.7613 134.201V134.201C14.6274 128.598 13.3951 122.424 9.52285 117.965V117.965C4.06201 111.677 4.06201 102.323 9.52285 96.0348V96.0348C13.3951 91.5761 14.6274 85.4022 12.7613 79.7994V79.7994C10.1343 71.9116 13.749 63.2714 21.1859 59.555V59.555C26.4704 56.9143 30.0006 51.671 30.4311 45.7792V45.7792C31.0369 37.4871 37.6963 30.8901 45.9888 30.2898V30.2898C51.8881 29.8628 57.1708 26.3659 59.8346 21.0849V21.0849C63.5857 13.648 72.2539 10.0892 80.1639 12.6992V12.6992C85.7884 14.5551 92 13.3362 96.4897 9.47322V9.47322Z" fill="#FFA818"/>
<g filter="url(#filter1_d_10_124)">
<circle cx="107" cy="107" r="77" fill="#ECF0FF"/>
</g>
<path d="M83 108L99.3379 124L132 92" stroke="#FFA818" stroke-width="5.42714" stroke-linecap="round" stroke-linejoin="round"/>
<defs>
<filter id="filter0_d_10_124" x="26.3819" y="30" width="161.236" height="161.236" filterUnits="userSpaceOnUse" color-interpolation-filters="sRGB">
<feFlood flood-opacity="0" result="BackgroundImageFix"/>
<feColorMatrix in="SourceAlpha" type="matrix" values="0 0 0 0 0 0 0 0 0 0 0 0 0 0 0 0 0 0 127 0" result="hardAlpha"/>
<feOffset dy="3.61809"/>
<feGaussianBlur stdDeviation="1.80905"/>
<feComposite in2="hardAlpha" operator="out"/>
<feColorMatrix type="matrix" values="0 0 0 0 0 0 0 0 0 0 0 0 0 0 0 0 0 0 0.25 0"/>
<feBlend mode="normal" in2="BackgroundImageFix" result="effect1_dropShadow_10_124"/>
<feBlend mode="normal" in="SourceGraphic" in2="effect1_dropShadow_10_124" result="shape"/>
</filter>
<filter id="filter1_d_10_124" x="26.3819" y="30" width="161.236" height="161.236" filterUnits="userSpaceOnUse" color-interpolation-filters="sRGB">
<feFlood flood-opacity="0" result="BackgroundImageFix"/>
<feColorMatrix in="SourceAlpha" type="matrix" values="0 0 0 0 0 0 0 0 0 0 0 0 0 0 0 0 0 0 127 0" result="hardAlpha"/>
<feOffset dy="3.61809"/>
<feGaussianBlur stdDeviation="1.80905"/>
<feComposite in2="hardAlpha" operator="out"/>
<feColorMatrix type="matrix" values="0 0 0 0 0 0 0 0 0 0 0 0 0 0 0 0 0 0 0.25 0"/>
<feBlend mode="normal" in2="BackgroundImageFix" result="effect1_dropShadow_10_124"/>
<feBlend mode="normal" in="SourceGraphic" in2="effect1_dropShadow_10_124" result="shape"/>
</filter>
</defs>
</svg>
