<svg xmlns="http://www.w3.org/2000/svg" width="838" height="863" viewBox="0 0 838 863" version="1.1"><path d="M 376.512 83.567 C 352.991 123.449, 333.916 156.238, 334.123 156.431 C 334.330 156.624, 339.425 159.492, 345.445 162.804 L 356.391 168.826 361.653 162.163 C 364.547 158.498, 366.934 155.195, 366.958 154.822 C 366.981 154.450, 364.319 152.516, 361.042 150.526 C 355.459 147.134, 355.146 146.746, 356.059 144.344 C 356.595 142.935, 377.051 115.993, 401.517 84.473 C 425.983 52.953, 446 26.928, 446 26.640 C 446 26.207, 441.260 23.440, 419.889 11.398 C 419.553 11.209, 400.033 43.685, 376.512 83.567 M 468 12.310 C 468 13.122, 467.277 14.063, 466.394 14.402 C 464.464 15.143, 465.003 17.985, 468.374 24.843 C 469.633 27.404, 488.679 66.625, 510.698 112 C 560.925 215.503, 565.131 223.909, 566.988 224.488 C 569.363 225.229, 604.397 229.939, 701 242.507 C 750.225 248.911, 791.175 254.405, 792 254.717 C 792.825 255.028, 795.525 255.476, 798 255.711 C 800.475 255.946, 804.212 256.515, 806.305 256.975 C 809.320 257.638, 810.047 257.527, 809.805 256.438 C 809.637 255.682, 766.542 224.224, 714.038 186.532 C 639.783 133.224, 618.124 118.137, 616.538 118.616 C 615.417 118.955, 609.775 121.398, 604 124.045 C 588.326 131.229, 583.461 132.416, 569.500 132.461 C 559.659 132.493, 556.170 132.082, 550.107 130.178 C 540.506 127.162, 527.695 120, 531.901 120 C 532.461 120, 537.550 121.192, 543.210 122.649 C 549.852 124.358, 556.336 125.325, 561.500 125.377 C 568.709 125.448, 570.093 125.135, 575.500 122.205 C 578.800 120.417, 584.866 116.262, 588.979 112.972 C 593.092 109.682, 597.255 106.737, 598.229 106.427 C 599.203 106.118, 599.987 105.558, 599.970 105.183 C 599.937 104.420, 471.137 11.879, 469.218 11.239 C 468.548 11.016, 468 11.498, 468 12.310 M 415.654 80.631 C 392.089 111.162, 372.967 136.300, 373.160 136.494 C 373.353 136.687, 407.709 145.221, 449.506 155.458 C 491.303 165.696, 526.938 174.462, 528.695 174.940 L 531.890 175.808 529.552 170.654 C 524.467 159.443, 459.923 26.523, 459.235 25.844 C 458.831 25.446, 439.219 50.099, 415.654 80.631 M 644.186 109.497 C 640.579 112.532, 639.549 116.103, 641.006 120.519 C 643.195 127.151, 652.347 129.380, 657.252 124.476 C 666.300 115.427, 653.956 101.276, 644.186 109.497 M 121.971 147.750 L 115.500 154.500 122.250 148.029 C 125.963 144.470, 129 141.432, 129 141.279 C 129 140.543, 127.982 141.480, 121.971 147.750 M 715 147.500 C 718.543 151.075, 721.667 154, 721.942 154 C 722.217 154, 719.543 151.075, 716 147.500 C 712.457 143.925, 709.333 141, 709.058 141 C 708.783 141, 711.457 143.925, 715 147.500 M 371 146.620 C 468.863 217.288, 698.297 382.036, 698.527 381.806 C 698.704 381.629, 681.225 349.693, 659.685 310.837 L 620.522 240.190 613.011 239.643 C 597.493 238.512, 585.387 237.120, 582.007 236.077 C 580.085 235.485, 575.724 235, 572.316 235 C 568.907 235, 565.823 234.522, 565.462 233.938 C 565.101 233.354, 563.758 232.478, 562.478 231.992 C 560.563 231.263, 552 218.678, 552 216.591 C 552 216.284, 549.075 210.065, 545.500 202.772 C 541.925 195.479, 539 188.947, 539 188.256 C 539 187.565, 538.473 187, 537.829 187 C 537.185 187, 535.947 186.357, 535.079 185.572 C 532.879 183.581, 501.031 175.742, 449.515 164.509 C 413.806 156.723, 387.935 150.466, 370.533 145.406 C 368.862 144.920, 368.945 145.136, 371 146.620 M 697.500 163.693 C 698.050 164.251, 717.205 177.967, 740.067 194.175 L 781.634 223.644 784.901 218.706 C 786.698 215.991, 787.793 213.437, 787.334 213.031 C 786.875 212.625, 767.825 202.041, 745 189.510 C 722.175 176.979, 701.925 165.816, 700 164.703 C 698.075 163.590, 696.950 163.136, 697.500 163.693 M 631.154 245.174 C 631.970 246.453, 650.567 279.811, 672.480 319.303 C 704.931 377.784, 712.559 390.864, 713.597 389.803 C 716.569 386.764, 803.894 264.481, 803.230 264.288 C 802.829 264.171, 765.150 259.557, 719.500 254.033 C 673.850 248.510, 634.963 243.733, 633.085 243.419 C 629.714 242.855, 629.689 242.878, 631.154 245.174 M 450.125 384.250 C 418.781 425.637, 393.538 459.644, 394.030 459.821 C 394.522 459.997, 395.616 459.754, 396.462 459.281 C 397.308 458.808, 422.350 425.364, 452.113 384.960 C 481.875 344.557, 506.680 310.938, 507.235 310.250 C 507.791 309.563, 507.990 309, 507.679 309 C 507.368 309, 481.469 342.863, 450.125 384.250 M 392 411.941 C 392 412.551, 390.808 413.503, 389.350 414.057 C 385.947 415.351, 377.626 422.312, 374.891 426.154 L 372.772 429.129 375.136 431.651 C 376.957 433.595, 378.196 434.062, 380.528 433.686 C 383.584 433.193, 393.625 427.743, 397.992 424.208 L 400.358 422.292 397.340 416.949 C 394.466 411.863, 392 409.550, 392 411.941 M 60.250 570.004 L 14 592.885 14 602.443 C 14 613.268, 14.047 613.314, 21.133 609.542 C 23.673 608.190, 26.032 607.365, 26.375 607.709 C 26.719 608.052, 27 607.733, 27 607 C 27 606.267, 27.287 605.953, 27.637 606.304 C 27.988 606.654, 29.501 606.068, 31 605 C 32.498 603.933, 51.224 595.122, 72.612 585.420 C 121.009 563.466, 119.350 564.307, 118.446 562.187 C 118.050 561.259, 117.373 558.114, 116.942 555.198 C 115.112 542.818, 115.302 542.769, 60.250 570.004 M 94.921 580.525 C 81.403 587.296, 63.628 595.421, 55.421 598.580 C 47.214 601.738, 34.571 607.132, 27.326 610.566 L 14.151 616.810 13.501 621.155 C 12.593 627.230, 12.368 639.699, 13.153 640.485 C 13.512 640.844, 14.637 640.657, 15.653 640.068 C 16.669 639.480, 37.075 631.996, 61 623.437 C 115.984 603.768, 116.119 603.718, 118.425 602.359 C 120.217 601.303, 120.333 600.098, 120.101 584.871 C 119.963 575.877, 119.772 568.449, 119.676 568.365 C 119.579 568.282, 108.439 573.753, 94.921 580.525 M 113.500 609.741 C 107.012 613.022, 61.618 628.997, 58.767 629.002 C 58.070 629.003, 54.929 630.360, 51.786 632.016 C 48.643 633.673, 41.668 636.199, 36.286 637.630 C 30.904 639.061, 23.925 641.529, 20.779 643.116 C 17.632 644.702, 14.369 646, 13.529 646 C 12.688 646, 12 646.810, 12 647.800 C 12 648.790, 11.561 650.039, 11.025 650.575 C 9.803 651.797, 10.930 675, 12.212 675 C 12.710 675, 12.900 674.648, 12.634 674.217 C 11.902 673.032, 44.662 658.673, 46.087 659.554 C 46.790 659.988, 47.052 659.893, 46.704 659.330 C 46.371 658.791, 48.113 657.372, 50.576 656.175 C 55.690 653.691, 56.402 653.540, 55.405 655.155 C 54.959 655.876, 55.131 656.037, 55.862 655.585 C 56.506 655.187, 56.809 654.501, 56.537 654.059 C 56.264 653.618, 70.914 646.577, 89.092 638.413 L 122.144 623.570 121.451 615.035 C 121.071 610.341, 120.701 606.433, 120.630 606.350 C 120.558 606.268, 117.350 607.794, 113.500 609.741 M 118.500 631.291 C 107.118 635.380, 63.528 654.188, 54.491 658.909 C 48.436 662.072, 38.536 666.590, 32.491 668.949 C 19.888 673.867, 12.863 677.256, 11.255 679.192 C 10.145 680.530, 8.239 703, 9.236 703 C 10.508 703, 26.264 696.084, 32.102 692.964 C 34.084 691.905, 35.996 691.329, 36.352 691.686 C 36.709 692.042, 37 691.857, 37 691.275 C 37 690.366, 41.775 688.524, 42.888 689.004 C 43.102 689.096, 43.552 688.745, 43.888 688.225 C 44.909 686.647, 50.992 683.877, 52.029 684.518 C 52.563 684.848, 53 684.714, 53 684.220 C 53 682.911, 57.961 680.858, 59.229 681.642 C 59.829 682.012, 60.023 681.847, 59.667 681.271 C 58.833 679.920, 64.480 677.577, 66.190 678.564 C 66.910 678.980, 67.164 678.950, 66.754 678.497 C 65.617 677.243, 69.687 675.108, 98.184 662.010 C 112.643 655.365, 124.891 649.509, 125.403 648.997 C 125.977 648.423, 125.914 646.041, 125.238 642.783 C 124.636 639.878, 123.866 635.813, 123.527 633.750 C 122.858 629.685, 122.905 629.708, 118.500 631.291 M 251 652.500 C 250.315 653.325, 249.150 654, 248.411 654 C 247.672 654, 225.598 682.688, 199.357 717.750 C 173.117 752.813, 147.680 786.317, 142.832 792.203 C 136.599 799.772, 133.664 804.229, 132.810 807.421 C 131.544 812.153, 131.964 813.612, 134.329 812.704 C 135.740 812.162, 163 776.717, 163 775.424 C 163 775.049, 183.398 747.463, 208.329 714.121 C 233.259 680.780, 253.986 652.938, 254.388 652.250 C 255.438 650.453, 252.520 650.668, 251 652.500 M 124 655.709 C 123.175 656.558, 97.970 668.333, 67.990 681.876 C 38.009 695.419, 12.394 707.272, 11.067 708.215 C 8.920 709.741, 8.577 710.954, 7.958 719.215 C 7.575 724.322, 7.482 729.938, 7.753 731.696 L 8.244 734.891 22.007 727.997 C 29.576 724.205, 36.046 721.379, 36.385 721.718 C 36.723 722.056, 37 721.733, 37 721 C 37 720.267, 37.240 719.906, 37.532 720.199 C 37.825 720.492, 58.413 710.515, 83.282 698.028 C 108.152 685.540, 129.151 675.109, 129.948 674.846 C 131.127 674.457, 131.185 673.825, 130.260 671.434 C 129.635 669.820, 128.606 665.237, 127.972 661.250 C 127.338 657.263, 126.522 654.038, 126.160 654.083 C 125.797 654.129, 124.825 654.861, 124 655.709 M 127.624 681.681 C 124.942 683.516, 120.217 685.705, 117.124 686.545 C 114.031 687.385, 109.025 689.372, 106 690.961 C 102.975 692.549, 91.500 698.613, 80.500 704.436 C 69.500 710.259, 56.900 716.465, 52.500 718.228 C 43.331 721.901, 9.827 738.861, 7.736 740.887 C 6.867 741.730, 5.681 762, 6.501 762 C 6.796 762, 11.416 759.805, 16.768 757.122 C 22.121 754.439, 31.675 749.895, 38 747.024 C 44.325 744.154, 54.337 739.387, 60.250 736.432 C 66.162 733.477, 71 731.262, 71 731.511 C 71 731.759, 73.850 730.396, 77.333 728.481 C 80.817 726.566, 83.967 725.300, 84.333 725.667 C 84.700 726.033, 85 725.782, 85 725.108 C 85 724.434, 85.450 724.160, 86 724.500 C 86.550 724.840, 87 724.710, 87 724.211 C 87 723.167, 94.342 719.667, 96.533 719.667 C 97.340 719.667, 98 719.265, 98 718.774 C 98 718.284, 98.403 718.131, 98.895 718.435 C 99.388 718.740, 100.007 718.425, 100.271 717.736 C 100.536 717.047, 109.583 712.254, 120.376 707.085 L 140 697.687 140 693.039 C 140 689.628, 139.228 687.174, 137.098 683.815 C 135.502 681.298, 133.814 679.038, 133.348 678.791 C 132.881 678.545, 130.306 679.845, 127.624 681.681 M 75.803 733.810 C 41.320 750.165, 11.711 764.577, 10.006 765.837 C 6.483 768.442, 6.578 769.993, 10.646 776.302 C 13.609 780.898, 13.659 780.889, 27.500 773.268 C 33 770.240, 38.063 767.741, 38.750 767.715 C 39.438 767.688, 40 767.265, 40 766.774 C 40 766.284, 40.450 766.160, 41 766.500 C 41.550 766.840, 42 766.615, 42 766 C 42 765.385, 42.450 765.160, 43 765.500 C 43.550 765.840, 44 765.615, 44 765 C 44 764.385, 44.450 764.160, 45 764.500 C 45.550 764.840, 46 764.615, 46 764 C 46 763.385, 46.450 763.160, 47 763.500 C 47.550 763.840, 48 763.566, 48 762.892 C 48 762.218, 48.263 761.929, 48.583 762.250 C 48.904 762.571, 50.064 761.936, 51.161 760.839 C 52.257 759.743, 53.818 759.100, 54.629 759.411 C 55.440 759.722, 55.872 759.602, 55.588 759.143 C 55.031 758.241, 64.824 753.321, 66.272 753.775 C 66.754 753.926, 66.816 753.512, 66.410 752.855 C 65.902 752.033, 66.207 751.866, 67.388 752.319 C 68.332 752.681, 68.868 752.595, 68.579 752.128 C 68.040 751.255, 75.850 747.302, 77.230 747.750 C 77.653 747.888, 78 747.523, 78 746.941 C 78 746.359, 78.450 746.160, 79 746.500 C 79.550 746.840, 80 746.651, 80 746.079 C 80 744.891, 87.992 740.554, 88.015 741.730 C 88.024 742.153, 88.361 742, 88.765 741.390 C 89.652 740.049, 96.196 736.505, 97.250 736.794 C 97.662 736.907, 98 736.523, 98 735.941 C 98 735.359, 98.450 735.160, 99 735.500 C 99.550 735.840, 100 735.697, 100 735.182 C 100 734.667, 102.224 733.289, 104.943 732.120 C 107.662 730.950, 110.153 729.562, 110.478 729.035 C 110.804 728.508, 117.530 724.677, 125.424 720.523 C 138.835 713.465, 139.809 712.757, 140.257 709.735 C 140.750 706.405, 140.274 703.971, 139.143 704.038 C 138.789 704.058, 110.286 717.456, 75.803 733.810 M 122 740.500 C 124.987 743.525, 127.657 746, 127.932 746 C 128.207 746, 125.987 743.525, 123 740.500 C 120.013 737.475, 117.343 735, 117.068 735 C 116.793 735, 119.013 737.475, 122 740.500 M 714.966 740.750 L 709.500 746.500 715.250 741.034 C 720.592 735.956, 721.458 735, 720.716 735 C 720.560 735, 717.972 737.587, 714.966 740.750 M 11.250 784.716 C 12.763 784.945, 15.238 784.945, 16.750 784.716 C 18.263 784.487, 17.025 784.300, 14 784.300 C 10.975 784.300, 9.738 784.487, 11.250 784.716" stroke="none" fill="#ffffff" fill-rule="evenodd"/><path d="M 376.512 83.567 C 352.991 123.449, 333.916 156.238, 334.123 156.431 C 334.330 156.624, 339.425 159.492, 345.445 162.804 L 356.391 168.826 361.653 162.163 C 364.547 158.498, 366.934 155.195, 366.958 154.822 C 366.981 154.450, 364.319 152.516, 361.042 150.526 C 355.459 147.134, 355.146 146.746, 356.059 144.344 C 356.595 142.935, 377.051 115.993, 401.517 84.473 C 425.983 52.953, 446 26.928, 446 26.640 C 446 26.207, 441.260 23.440, 419.889 11.398 C 419.553 11.209, 400.033 43.685, 376.512 83.567 M 468 12.310 C 468 13.122, 467.277 14.063, 466.394 14.402 C 464.464 15.143, 465.003 17.985, 468.374 24.843 C 469.633 27.404, 488.679 66.625, 510.698 112 C 560.925 215.503, 565.131 223.909, 566.988 224.488 C 569.363 225.229, 604.397 229.939, 701 242.507 C 750.225 248.911, 791.175 254.405, 792 254.717 C 792.825 255.028, 795.525 255.476, 798 255.711 C 800.475 255.946, 804.212 256.515, 806.305 256.975 C 809.320 257.638, 810.047 257.527, 809.805 256.438 C 809.637 255.682, 766.542 224.224, 714.038 186.532 C 639.783 133.224, 618.124 118.137, 616.538 118.616 C 615.417 118.955, 609.775 121.398, 604 124.045 C 588.326 131.229, 583.461 132.416, 569.500 132.461 C 559.659 132.493, 556.170 132.082, 550.107 130.178 C 540.506 127.162, 527.695 120, 531.901 120 C 532.461 120, 537.550 121.192, 543.210 122.649 C 549.852 124.358, 556.336 125.325, 561.500 125.377 C 568.709 125.448, 570.093 125.135, 575.500 122.205 C 578.800 120.417, 584.866 116.262, 588.979 112.972 C 593.092 109.682, 597.255 106.737, 598.229 106.427 C 599.203 106.118, 599.987 105.558, 599.970 105.183 C 599.937 104.420, 471.137 11.879, 469.218 11.239 C 468.548 11.016, 468 11.498, 468 12.310 M 415.654 80.631 C 392.089 111.162, 372.967 136.300, 373.160 136.494 C 373.353 136.687, 407.709 145.221, 449.506 155.458 C 491.303 165.696, 526.938 174.462, 528.695 174.940 L 531.890 175.808 529.552 170.654 C 524.467 159.443, 459.923 26.523, 459.235 25.844 C 458.831 25.446, 439.219 50.099, 415.654 80.631 M 644.186 109.497 C 640.579 112.532, 639.549 116.103, 641.006 120.519 C 643.195 127.151, 652.347 129.380, 657.252 124.476 C 666.300 115.427, 653.956 101.276, 644.186 109.497 M 121.971 147.750 L 115.500 154.500 122.250 148.029 C 125.963 144.470, 129 141.432, 129 141.279 C 129 140.543, 127.982 141.480, 121.971 147.750 M 715 147.500 C 718.543 151.075, 721.667 154, 721.942 154 C 722.217 154, 719.543 151.075, 716 147.500 C 712.457 143.925, 709.333 141, 709.058 141 C 708.783 141, 711.457 143.925, 715 147.500 M 371 146.620 C 468.863 217.288, 698.297 382.036, 698.527 381.806 C 698.704 381.629, 681.225 349.693, 659.685 310.837 L 620.522 240.190 613.011 239.643 C 597.493 238.512, 585.387 237.120, 582.007 236.077 C 580.085 235.485, 575.724 235, 572.316 235 C 568.907 235, 565.823 234.522, 565.462 233.938 C 565.101 233.354, 563.758 232.478, 562.478 231.992 C 560.563 231.263, 552 218.678, 552 216.591 C 552 216.284, 549.075 210.065, 545.500 202.772 C 541.925 195.479, 539 188.947, 539 188.256 C 539 187.565, 538.473 187, 537.829 187 C 537.185 187, 535.947 186.357, 535.079 185.572 C 532.879 183.581, 501.031 175.742, 449.515 164.509 C 413.806 156.723, 387.935 150.466, 370.533 145.406 C 368.862 144.920, 368.945 145.136, 371 146.620 M 697.500 163.693 C 698.050 164.251, 717.205 177.967, 740.067 194.175 L 781.634 223.644 784.901 218.706 C 786.698 215.991, 787.793 213.437, 787.334 213.031 C 786.875 212.625, 767.825 202.041, 745 189.510 C 722.175 176.979, 701.925 165.816, 700 164.703 C 698.075 163.590, 696.950 163.136, 697.500 163.693 M 631.154 245.174 C 631.970 246.453, 650.567 279.811, 672.480 319.303 C 704.931 377.784, 712.559 390.864, 713.597 389.803 C 716.569 386.764, 803.894 264.481, 803.230 264.288 C 802.829 264.171, 765.150 259.557, 719.500 254.033 C 673.850 248.510, 634.963 243.733, 633.085 243.419 C 629.714 242.855, 629.689 242.878, 631.154 245.174 M 450.125 384.250 C 418.781 425.637, 393.538 459.644, 394.030 459.821 C 394.522 459.997, 395.616 459.754, 396.462 459.281 C 397.308 458.808, 422.350 425.364, 452.113 384.960 C 481.875 344.557, 506.680 310.938, 507.235 310.250 C 507.791 309.563, 507.990 309, 507.679 309 C 507.368 309, 481.469 342.863, 450.125 384.250 M 392 411.941 C 392 412.551, 390.808 413.503, 389.350 414.057 C 385.947 415.351, 377.626 422.312, 374.891 426.154 L 372.772 429.129 375.136 431.651 C 376.957 433.595, 378.196 434.062, 380.528 433.686 C 383.584 433.193, 393.625 427.743, 397.992 424.208 L 400.358 422.292 397.340 416.949 C 394.466 411.863, 392 409.550, 392 411.941 M 60.250 570.004 L 14 592.885 14 602.443 C 14 613.268, 14.047 613.314, 21.133 609.542 C 23.673 608.190, 26.032 607.365, 26.375 607.709 C 26.719 608.052, 27 607.733, 27 607 C 27 606.267, 27.287 605.953, 27.637 606.304 C 27.988 606.654, 29.501 606.068, 31 605 C 32.498 603.933, 51.224 595.122, 72.612 585.420 C 121.009 563.466, 119.350 564.307, 118.446 562.187 C 118.050 561.259, 117.373 558.114, 116.942 555.198 C 115.112 542.818, 115.302 542.769, 60.250 570.004 M 94.921 580.525 C 81.403 587.296, 63.628 595.421, 55.421 598.580 C 47.214 601.738, 34.571 607.132, 27.326 610.566 L 14.151 616.810 13.501 621.155 C 12.593 627.230, 12.368 639.699, 13.153 640.485 C 13.512 640.844, 14.637 640.657, 15.653 640.068 C 16.669 639.480, 37.075 631.996, 61 623.437 C 115.984 603.768, 116.119 603.718, 118.425 602.359 C 120.217 601.303, 120.333 600.098, 120.101 584.871 C 119.963 575.877, 119.772 568.449, 119.676 568.365 C 119.579 568.282, 108.439 573.753, 94.921 580.525 M 113.500 609.741 C 107.012 613.022, 61.618 628.997, 58.767 629.002 C 58.070 629.003, 54.929 630.360, 51.786 632.016 C 48.643 633.673, 41.668 636.199, 36.286 637.630 C 30.904 639.061, 23.925 641.529, 20.779 643.116 C 17.632 644.702, 14.369 646, 13.529 646 C 12.688 646, 12 646.810, 12 647.800 C 12 648.790, 11.561 650.039, 11.025 650.575 C 9.803 651.797, 10.930 675, 12.212 675 C 12.710 675, 12.900 674.648, 12.634 674.217 C 11.902 673.032, 44.662 658.673, 46.087 659.554 C 46.790 659.988, 47.052 659.893, 46.704 659.330 C 46.371 658.791, 48.113 657.372, 50.576 656.175 C 55.690 653.691, 56.402 653.540, 55.405 655.155 C 54.959 655.876, 55.131 656.037, 55.862 655.585 C 56.506 655.187, 56.809 654.501, 56.537 654.059 C 56.264 653.618, 70.914 646.577, 89.092 638.413 L 122.144 623.570 121.451 615.035 C 121.071 610.341, 120.701 606.433, 120.630 606.350 C 120.558 606.268, 117.350 607.794, 113.500 609.741 M 118.500 631.291 C 107.118 635.380, 63.528 654.188, 54.491 658.909 C 48.436 662.072, 38.536 666.590, 32.491 668.949 C 19.888 673.867, 12.863 677.256, 11.255 679.192 C 10.145 680.530, 8.239 703, 9.236 703 C 10.508 703, 26.264 696.084, 32.102 692.964 C 34.084 691.905, 35.996 691.329, 36.352 691.686 C 36.709 692.042, 37 691.857, 37 691.275 C 37 690.366, 41.775 688.524, 42.888 689.004 C 43.102 689.096, 43.552 688.745, 43.888 688.225 C 44.909 686.647, 50.992 683.877, 52.029 684.518 C 52.563 684.848, 53 684.714, 53 684.220 C 53 682.911, 57.961 680.858, 59.229 681.642 C 59.829 682.012, 60.023 681.847, 59.667 681.271 C 58.833 679.920, 64.480 677.577, 66.190 678.564 C 66.910 678.980, 67.164 678.950, 66.754 678.497 C 65.617 677.243, 69.687 675.108, 98.184 662.010 C 112.643 655.365, 124.891 649.509, 125.403 648.997 C 125.977 648.423, 125.914 646.041, 125.238 642.783 C 124.636 639.878, 123.866 635.813, 123.527 633.750 C 122.858 629.685, 122.905 629.708, 118.500 631.291 M 251 652.500 C 250.315 653.325, 249.150 654, 248.411 654 C 247.672 654, 225.598 682.688, 199.357 717.750 C 173.117 752.813, 147.680 786.317, 142.832 792.203 C 136.599 799.772, 133.664 804.229, 132.810 807.421 C 131.544 812.153, 131.964 813.612, 134.329 812.704 C 135.740 812.162, 163 776.717, 163 775.424 C 163 775.049, 183.398 747.463, 208.329 714.121 C 233.259 680.780, 253.986 652.938, 254.388 652.250 C 255.438 650.453, 252.520 650.668, 251 652.500 M 124 655.709 C 123.175 656.558, 97.970 668.333, 67.990 681.876 C 38.009 695.419, 12.394 707.272, 11.067 708.215 C 8.920 709.741, 8.577 710.954, 7.958 719.215 C 7.575 724.322, 7.482 729.938, 7.753 731.696 L 8.244 734.891 22.007 727.997 C 29.576 724.205, 36.046 721.379, 36.385 721.718 C 36.723 722.056, 37 721.733, 37 721 C 37 720.267, 37.240 719.906, 37.532 720.199 C 37.825 720.492, 58.413 710.515, 83.282 698.028 C 108.152 685.540, 129.151 675.109, 129.948 674.846 C 131.127 674.457, 131.185 673.825, 130.260 671.434 C 129.635 669.820, 128.606 665.237, 127.972 661.250 C 127.338 657.263, 126.522 654.038, 126.160 654.083 C 125.797 654.129, 124.825 654.861, 124 655.709 M 127.624 681.681 C 124.942 683.516, 120.217 685.705, 117.124 686.545 C 114.031 687.385, 109.025 689.372, 106 690.961 C 102.975 692.549, 91.500 698.613, 80.500 704.436 C 69.500 710.259, 56.900 716.465, 52.500 718.228 C 43.331 721.901, 9.827 738.861, 7.736 740.887 C 6.867 741.730, 5.681 762, 6.501 762 C 6.796 762, 11.416 759.805, 16.768 757.122 C 22.121 754.439, 31.675 749.895, 38 747.024 C 44.325 744.154, 54.337 739.387, 60.250 736.432 C 66.162 733.477, 71 731.262, 71 731.511 C 71 731.759, 73.850 730.396, 77.333 728.481 C 80.817 726.566, 83.967 725.300, 84.333 725.667 C 84.700 726.033, 85 725.782, 85 725.108 C 85 724.434, 85.450 724.160, 86 724.500 C 86.550 724.840, 87 724.710, 87 724.211 C 87 723.167, 94.342 719.667, 96.533 719.667 C 97.340 719.667, 98 719.265, 98 718.774 C 98 718.284, 98.403 718.131, 98.895 718.435 C 99.388 718.740, 100.007 718.425, 100.271 717.736 C 100.536 717.047, 109.583 712.254, 120.376 707.085 L 140 697.687 140 693.039 C 140 689.628, 139.228 687.174, 137.098 683.815 C 135.502 681.298, 133.814 679.038, 133.348 678.791 C 132.881 678.545, 130.306 679.845, 127.624 681.681 M 75.803 733.810 C 41.320 750.165, 11.711 764.577, 10.006 765.837 C 6.483 768.442, 6.578 769.993, 10.646 776.302 C 13.609 780.898, 13.659 780.889, 27.500 773.268 C 33 770.240, 38.063 767.741, 38.750 767.715 C 39.438 767.688, 40 767.265, 40 766.774 C 40 766.284, 40.450 766.160, 41 766.500 C 41.550 766.840, 42 766.615, 42 766 C 42 765.385, 42.450 765.160, 43 765.500 C 43.550 765.840, 44 765.615, 44 765 C 44 764.385, 44.450 764.160, 45 764.500 C 45.550 764.840, 46 764.615, 46 764 C 46 763.385, 46.450 763.160, 47 763.500 C 47.550 763.840, 48 763.566, 48 762.892 C 48 762.218, 48.263 761.929, 48.583 762.250 C 48.904 762.571, 50.064 761.936, 51.161 760.839 C 52.257 759.743, 53.818 759.100, 54.629 759.411 C 55.440 759.722, 55.872 759.602, 55.588 759.143 C 55.031 758.241, 64.824 753.321, 66.272 753.775 C 66.754 753.926, 66.816 753.512, 66.410 752.855 C 65.902 752.033, 66.207 751.866, 67.388 752.319 C 68.332 752.681, 68.868 752.595, 68.579 752.128 C 68.040 751.255, 75.850 747.302, 77.230 747.750 C 77.653 747.888, 78 747.523, 78 746.941 C 78 746.359, 78.450 746.160, 79 746.500 C 79.550 746.840, 80 746.651, 80 746.079 C 80 744.891, 87.992 740.554, 88.015 741.730 C 88.024 742.153, 88.361 742, 88.765 741.390 C 89.652 740.049, 96.196 736.505, 97.250 736.794 C 97.662 736.907, 98 736.523, 98 735.941 C 98 735.359, 98.450 735.160, 99 735.500 C 99.550 735.840, 100 735.697, 100 735.182 C 100 734.667, 102.224 733.289, 104.943 732.120 C 107.662 730.950, 110.153 729.562, 110.478 729.035 C 110.804 728.508, 117.530 724.677, 125.424 720.523 C 138.835 713.465, 139.809 712.757, 140.257 709.735 C 140.750 706.405, 140.274 703.971, 139.143 704.038 C 138.789 704.058, 110.286 717.456, 75.803 733.810 M 122 740.500 C 124.987 743.525, 127.657 746, 127.932 746 C 128.207 746, 125.987 743.525, 123 740.500 C 120.013 737.475, 117.343 735, 117.068 735 C 116.793 735, 119.013 737.475, 122 740.500 M 714.966 740.750 L 709.500 746.500 715.250 741.034 C 720.592 735.956, 721.458 735, 720.716 735 C 720.560 735, 717.972 737.587, 714.966 740.750 M 11.250 784.716 C 12.763 784.945, 15.238 784.945, 16.750 784.716 C 18.263 784.487, 17.025 784.300, 14 784.300 C 10.975 784.300, 9.738 784.487, 11.250 784.716" stroke="none" fill="#ffffff" fill-rule="evenodd"/><path d="M 604.897 98.302 C 605.340 98.742, 608.582 98.962, 612.102 98.790 L 618.500 98.477 611.295 97.989 C 607.333 97.720, 604.453 97.861, 604.897 98.302 M 690 101.678 C 703.230 102.399, 718.776 102.438, 718.348 101.750 C 718.092 101.338, 710.371 101.085, 701.191 101.189 C 692.011 101.293, 686.975 101.513, 690 101.678 M 714.264 117.718 C 715.784 117.947, 718.034 117.941, 719.264 117.704 C 720.494 117.467, 719.250 117.279, 716.500 117.286 C 713.750 117.294, 712.744 117.488, 714.264 117.718 M 564.750 132.732 C 567.087 132.943, 570.913 132.943, 573.250 132.732 C 575.587 132.522, 573.675 132.349, 569 132.349 C 564.325 132.349, 562.413 132.522, 564.750 132.732 M 569.750 226.723 C 571.538 226.945, 574.462 226.945, 576.250 226.723 C 578.038 226.502, 576.575 226.320, 573 226.320 C 569.425 226.320, 567.962 226.502, 569.750 226.723 M 590.750 237.723 C 592.538 237.945, 595.462 237.945, 597.250 237.723 C 599.038 237.502, 597.575 237.320, 594 237.320 C 590.425 237.320, 588.962 237.502, 590.750 237.723 M 391.089 428.725 C 386.397 431.668, 381.501 434, 380.014 434 C 376.715 434, 372.290 429.674, 373.603 427.732 C 374.096 427.003, 373.767 427.197, 372.871 428.165 C 368.347 433.049, 337.232 450.144, 331.035 451.150 C 328.541 451.555, 322.450 452.620, 317.500 453.516 C 312.550 454.412, 302.650 455.488, 295.500 455.907 C 288.350 456.326, 281.233 457.194, 279.685 457.835 C 278.137 458.476, 274.695 459, 272.036 459 C 265.602 459, 251.419 466.267, 239.359 475.744 C 234.486 479.573, 228.475 483.964, 226 485.501 C 223.525 487.039, 217.675 491.763, 213 496 C 208.325 500.237, 202.509 504.950, 200.075 506.475 C 197.641 507.999, 192.837 511.632, 189.400 514.548 C 185.964 517.463, 182.105 520.384, 180.826 521.039 C 179.547 521.693, 176.250 524.362, 173.500 526.969 C 167.452 532.701, 155.104 540.417, 148.402 542.653 C 145.706 543.552, 138.839 546.992, 133.142 550.299 L 122.784 556.310 123.448 561.322 C 124.904 572.293, 125.935 587.052, 125.976 597.500 C 126.073 622.069, 133.519 671.111, 137.377 672.591 C 138.006 672.832, 144.590 669.996, 152.010 666.287 C 159.429 662.579, 166.031 659.529, 166.679 659.510 C 167.328 659.490, 168.228 659.071, 168.679 658.577 C 169.158 658.054, 168.875 658.016, 168 658.486 C 166.790 659.137, 166.738 659.036, 167.733 657.964 C 168.536 657.098, 173.073 656.374, 180.733 655.889 C 187.205 655.479, 195.200 654.717, 198.500 654.196 C 201.800 653.674, 208.100 653.359, 212.500 653.496 C 219.536 653.714, 219.777 653.669, 214.500 653.122 L 208.500 652.500 219 651.237 C 224.775 650.543, 233.301 649.066, 237.946 647.955 C 242.592 646.845, 247.002 646.171, 247.748 646.457 C 248.540 646.761, 248.829 646.532, 248.443 645.907 C 248.052 645.275, 248.543 644.918, 249.641 645.034 C 250.663 645.142, 251.725 645.141, 252 645.032 C 252.275 644.923, 253.400 644.720, 254.500 644.582 C 255.600 644.444, 260.683 643.117, 265.796 641.634 C 270.908 640.151, 275.521 639.204, 276.046 639.528 C 276.570 639.853, 277 639.615, 277 639 C 277 638.385, 277.419 638.141, 277.931 638.457 C 278.443 638.774, 279.144 638.575, 279.490 638.016 C 279.835 637.457, 280.737 637, 281.494 637 C 282.251 637, 283.912 636.604, 285.185 636.120 C 286.458 635.636, 287.900 635.224, 288.388 635.205 C 288.877 635.186, 289.552 634.763, 289.888 634.264 C 290.966 632.668, 310.201 623.006, 311.142 623.588 C 311.641 623.896, 311.926 623.639, 311.775 623.016 C 311.468 621.752, 325.068 612.976, 326.250 613.675 C 326.663 613.919, 327 613.716, 327 613.226 C 327 612.735, 327.563 612.286, 328.250 612.228 C 328.938 612.169, 331.441 611.636, 333.814 611.042 C 336.187 610.447, 338.619 610.264, 339.219 610.635 C 339.869 611.037, 340.023 610.846, 339.600 610.161 C 339.138 609.414, 339.695 609.057, 341.195 609.138 C 342.463 609.206, 345.207 608.514, 347.294 607.599 C 349.381 606.685, 351.477 606.177, 351.953 606.471 C 352.429 606.765, 354.049 605.542, 355.555 603.753 C 357.060 601.964, 358.788 600.500, 359.396 600.500 C 360.003 600.500, 360.500 599.975, 360.500 599.333 C 360.500 598.692, 360.837 597.829, 361.250 597.417 C 362.817 595.850, 361.863 592.619, 357.826 585.824 C 355.332 581.626, 352.616 578.354, 351.076 577.693 C 347.452 576.137, 339.728 570.907, 338.317 569.053 C 336.687 566.912, 337.749 566.197, 343 565.899 C 347.884 565.621, 352.469 567.432, 351.373 569.205 C 350.962 569.871, 351.149 570.026, 351.845 569.595 C 352.480 569.203, 353 569.385, 353 570 C 353 570.615, 353.375 570.886, 353.834 570.602 C 354.293 570.319, 356.656 572.157, 359.084 574.688 C 361.513 577.218, 362.825 578.922, 362 578.473 C 360.475 577.642, 363.510 581.773, 365.500 583.235 C 366.050 583.639, 366.107 583.976, 365.628 583.985 C 365.148 583.993, 365.256 584.604, 365.869 585.342 C 366.481 586.080, 366.742 586.925, 366.448 587.218 C 366.154 587.512, 366.592 588.013, 367.421 588.331 C 368.992 588.934, 375 582.611, 375 580.355 C 375 579.702, 375.503 578.999, 376.118 578.794 C 376.734 578.589, 377.456 575.289, 377.724 571.461 C 378.204 564.617, 378.142 564.395, 374.023 558.250 C 371.719 554.813, 369.427 552, 368.930 552 C 368.432 552, 366.889 550.200, 365.500 548 C 364.083 545.755, 362.187 544, 361.179 544 C 360.191 544, 358.509 543.339, 357.441 542.532 C 354.929 540.631, 352.560 540.620, 351 542.500 C 350.131 543.547, 347.824 544, 343.359 544 L 336.962 544 337.619 541.250 C 338.572 537.265, 339.012 536.770, 341.114 537.320 C 342.286 537.626, 342.753 537.410, 342.345 536.749 C 341.924 536.067, 342.462 535.888, 343.844 536.249 C 345.030 536.559, 346 536.357, 346 535.800 C 346 535.173, 348.977 534.924, 353.823 535.144 C 360.356 535.441, 362.341 535.960, 365.859 538.288 C 368.176 539.821, 369.823 541.477, 369.519 541.969 C 369.216 542.460, 369.494 543.187, 370.138 543.585 C 370.869 544.037, 371.041 543.876, 370.595 543.155 C 370.203 542.520, 370.246 542.011, 370.691 542.025 C 371.136 542.039, 373.696 544.964, 376.379 548.525 C 379.063 552.086, 381.902 555, 382.688 555 C 383.514 555, 383.817 555.487, 383.405 556.155 C 382.959 556.876, 383.131 557.037, 383.862 556.585 C 384.506 556.187, 384.799 555.484, 384.513 555.022 C 383.900 554.029, 391.771 550.035, 394.566 549.921 C 395.660 549.876, 395.948 549.620, 395.230 549.331 C 393.874 548.786, 398.791 544.282, 400.231 544.750 C 401.293 545.095, 401.196 543.873, 399.844 539.899 C 398.420 535.712, 393.055 528, 391.567 528 C 390.965 528, 389.360 526.200, 388 524 C 386.640 521.800, 384.944 520, 384.231 520 C 383.517 520, 380.713 518.875, 378 517.500 C 374.111 515.529, 371.525 514.993, 365.783 514.967 C 357.528 514.929, 353.311 512.745, 354.467 509.105 C 354.995 507.440, 356.190 507.107, 362.641 506.828 C 366.797 506.647, 370.392 506.818, 370.631 507.206 C 370.869 507.595, 371.653 507.687, 372.372 507.411 C 374.297 506.672, 384.815 510.858, 385.958 512.817 C 386.497 513.743, 386.953 514.152, 386.970 513.727 C 386.986 513.302, 388.122 513.689, 389.493 514.587 C 391.266 515.749, 392.781 515.988, 394.743 515.414 C 396.259 514.970, 398.032 514.577, 398.683 514.541 C 400.402 514.445, 404.408 510.499, 411.243 502.171 L 417.257 494.842 416.780 488.163 C 416.068 478.212, 412.350 472.383, 404.124 468.320 C 401.270 466.911, 400.069 466.834, 396.360 467.826 C 393.309 468.642, 378.230 469, 346.877 469 L 301.783 469 302.473 466.252 C 302.852 464.741, 303.388 463.278, 303.663 463.002 C 303.938 462.726, 308.401 462.500, 313.580 462.500 C 318.759 462.500, 322.997 462.178, 322.998 461.785 C 323 460.976, 355.035 460.912, 356.348 461.718 C 356.814 462.004, 362.143 462.160, 368.191 462.064 C 377.009 461.923, 379.030 462.147, 378.395 463.194 C 377.959 463.912, 379.179 463.150, 381.104 461.500 C 383.030 459.850, 385.352 456.775, 386.264 454.667 C 387.394 452.055, 388.333 451.071, 389.211 451.577 C 389.920 451.986, 390.171 451.957, 389.768 451.512 C 388.918 450.572, 393.880 441, 395.218 441 C 395.713 441, 395.840 440.550, 395.500 440 C 395.160 439.450, 395.359 439, 395.941 439 C 396.523 439, 396.931 438.663, 396.846 438.250 C 396.761 437.837, 397.460 435.768, 398.400 433.652 C 399.340 431.535, 399.972 428.374, 399.805 426.627 L 399.500 423.450 391.089 428.725 M 279.264 450.718 C 280.784 450.947, 283.034 450.941, 284.264 450.704 C 285.494 450.467, 284.250 450.279, 281.500 450.286 C 278.750 450.294, 277.744 450.488, 279.264 450.718 M 246.500 493.099 C 235.438 501.163, 233.240 503.576, 234.340 506.445 C 235.389 509.178, 237.904 508.149, 245.813 501.750 C 250.062 498.313, 255.667 494.173, 258.269 492.551 C 261.685 490.421, 263 488.962, 263 487.301 C 263 482.847, 258.297 484.499, 246.500 493.099 M 265.985 525.777 C 261.472 528.052, 253.792 537.540, 254.194 540.346 C 254.944 545.576, 259.904 542.754, 269.068 531.886 C 272.760 527.507, 272.868 527.190, 271.181 525.663 C 269.545 524.184, 269.129 524.193, 265.985 525.777 M 267.129 559.021 C 261.929 562.789, 252.896 574.802, 253.243 577.490 C 253.824 581.986, 257.105 580.284, 265.849 570.950 C 276.078 560.031, 276.536 559.351, 274.957 557.448 C 273.216 555.350, 271.806 555.634, 267.129 559.021 M 120.392 581 C 120.392 588.425, 120.549 591.462, 120.742 587.750 C 120.934 584.038, 120.934 577.962, 120.742 574.250 C 120.549 570.538, 120.392 573.575, 120.392 581 M 9.286 605.500 C 9.294 608.250, 9.488 609.256, 9.718 607.736 C 9.947 606.216, 9.941 603.966, 9.704 602.736 C 9.467 601.506, 9.279 602.750, 9.286 605.500 M 121.286 611.500 C 121.294 614.250, 121.488 615.256, 121.718 613.736 C 121.947 612.216, 121.941 609.966, 121.704 608.736 C 121.467 607.506, 121.279 608.750, 121.286 611.500 M 8.286 624.500 C 8.294 627.250, 8.488 628.256, 8.718 626.736 C 8.947 625.216, 8.941 622.966, 8.704 621.736 C 8.467 620.506, 8.279 621.750, 8.286 624.500 M 7.286 644.500 C 7.294 647.250, 7.488 648.256, 7.718 646.736 C 7.947 645.216, 7.941 642.966, 7.704 641.736 C 7.467 640.506, 7.279 641.750, 7.286 644.500 M 6.286 664.500 C 6.294 667.250, 6.488 668.256, 6.718 666.736 C 6.947 665.216, 6.941 662.966, 6.704 661.736 C 6.467 660.506, 6.279 661.750, 6.286 664.500 M 199.287 661.740 C 202.469 661.939, 207.419 661.937, 210.287 661.736 C 213.154 661.535, 210.550 661.372, 204.500 661.374 C 198.450 661.376, 196.104 661.541, 199.287 661.740 M 5.300 685 C 5.300 688.025, 5.487 689.263, 5.716 687.750 C 5.945 686.237, 5.945 683.763, 5.716 682.250 C 5.487 680.737, 5.300 681.975, 5.300 685 M 4.286 706.500 C 4.294 709.250, 4.488 710.256, 4.718 708.736 C 4.947 707.216, 4.941 704.966, 4.704 703.736 C 4.467 702.506, 4.279 703.750, 4.286 706.500 M 7.300 721 C 7.300 724.025, 7.487 725.263, 7.716 723.750 C 7.945 722.237, 7.945 719.763, 7.716 718.250 C 7.487 716.737, 7.300 717.975, 7.300 721 M 3.286 725.500 C 3.294 728.250, 3.488 729.256, 3.718 727.736 C 3.947 726.216, 3.941 723.966, 3.704 722.736 C 3.467 721.506, 3.279 722.750, 3.286 725.500 M 7.200 740.200 C 6.540 740.860, 6.072 742.997, 6.160 744.950 L 6.320 748.500 6.742 745.004 C 6.974 743.081, 7.632 740.944, 8.204 740.254 C 9.531 738.656, 8.784 738.616, 7.200 740.200 M 137.728 824.722 C 139.503 824.943, 142.653 824.946, 144.728 824.730 C 146.802 824.513, 145.350 824.333, 141.500 824.328 C 137.650 824.324, 135.952 824.501, 137.728 824.722" stroke="none" fill="#c68e89" fill-rule="evenodd"/><path d="M 460.356 10.535 C 456.075 16.291, 452.216 21, 451.782 21 C 451.347 21, 443.150 16.928, 433.567 11.951 L 416.144 2.901 369.244 81.201 L 322.345 159.500 324.724 161.750 C 326.032 162.988, 327.935 164, 328.951 164 C 329.967 164, 333.052 165.516, 335.806 167.370 C 338.560 169.223, 342.200 171.223, 343.895 171.814 C 345.590 172.404, 349.030 174.301, 351.540 176.028 C 354.050 177.755, 363.843 183.446, 373.302 188.675 C 395.640 201.024, 407.317 208.339, 413.500 213.856 C 416.250 216.310, 422.325 220.782, 427 223.794 C 431.675 226.805, 437.787 231.346, 440.582 233.885 C 443.377 236.423, 450.352 241.537, 456.082 245.249 C 469.818 254.147, 490.237 268.850, 496.534 274.375 C 499.302 276.805, 503.240 279.491, 505.284 280.345 C 507.328 281.199, 509 282.390, 509 282.992 C 509 283.996, 408.270 421, 407.532 421 C 407.353 421, 405.141 417.685, 402.616 413.633 C 398.282 406.681, 397.785 406.234, 393.762 405.690 C 388.598 404.991, 387.431 405.675, 377.138 415.437 C 370.060 422.151, 355.266 433, 353.189 433 C 352.693 433, 350.310 434.504, 347.894 436.342 C 340.142 442.237, 339.021 442.578, 319.692 444.899 C 315.947 445.349, 312.370 446.230, 311.742 446.858 C 311.062 447.538, 307.093 448, 301.926 448 C 296.771 448, 291.526 448.609, 289 449.500 C 286.662 450.325, 282.925 451, 280.695 451 C 278.466 451, 275.260 451.411, 273.571 451.913 C 268.429 453.443, 261.720 455.090, 257.400 455.884 C 250.673 457.120, 229.676 472.218, 208.735 490.878 C 202.265 496.643, 195.065 502.474, 192.735 503.836 C 190.406 505.198, 186.145 508.295, 183.266 510.719 C 180.388 513.143, 173.731 517.563, 168.472 520.541 C 163.214 523.519, 156.794 527.720, 154.206 529.876 C 149.142 534.096, 131.890 544, 129.605 544 C 128.840 544, 127.955 544.675, 127.638 545.500 C 126.788 547.717, 123.031 547.317, 118.500 544.526 C 116.300 543.171, 113.026 542.048, 111.225 542.031 C 108.101 542.001, 73.132 557.882, 60.194 565.207 C 57.276 566.859, 52.666 568.797, 49.948 569.514 C 47.231 570.230, 38.604 574.346, 30.776 578.658 C 22.949 582.971, 15.635 586.744, 14.523 587.042 C 13.410 587.341, 11.993 588.691, 11.374 590.042 C 10.703 591.507, 9.180 614.530, 7.606 647 C 6.153 676.975, 4.215 715.509, 3.301 732.630 L 1.637 763.760 3.968 771.630 C 7.298 782.877, 8.208 784, 13.993 784 C 16.814 784, 19.220 783.439, 19.897 782.625 C 20.524 781.868, 23.167 780.653, 25.769 779.925 C 28.371 779.197, 42.781 771.521, 57.791 762.867 C 72.801 754.214, 87.426 746.364, 90.291 745.423 C 93.156 744.482, 101.575 740.241, 109 735.998 C 116.425 731.756, 126.617 726.466, 131.649 724.243 C 145.585 718.087, 145.509 718.210, 145.455 702 C 145.420 691.535, 145.026 687.629, 143.705 684.628 C 141.637 679.931, 141.640 680, 143.500 680 C 144.325 680, 145 679.519, 145 678.931 C 145 677.651, 167.221 667, 169.891 667 C 170.916 667, 172.315 666.325, 173 665.500 C 173.864 664.459, 176.159 664, 180.497 664 C 183.935 664, 188.662 663.325, 191 662.500 C 193.749 661.530, 199.006 660.997, 205.876 660.992 C 211.719 660.988, 219.369 660.519, 222.875 659.951 C 226.381 659.382, 229.433 659.100, 229.658 659.325 C 229.883 659.550, 228.104 662.156, 225.705 665.117 C 223.306 668.078, 219.747 673.008, 217.797 676.072 C 215.848 679.137, 210.141 686.715, 205.116 692.911 C 200.091 699.108, 194.757 706.275, 193.262 708.839 C 191.768 711.403, 186.016 719.125, 180.482 726 C 174.947 732.875, 168.910 740.975, 167.066 744 C 165.223 747.025, 160.923 753.100, 157.511 757.500 C 154.099 761.900, 150.025 767.750, 148.457 770.500 C 146.888 773.250, 143.029 778.915, 139.881 783.089 C 132.111 793.387, 126 806.127, 126 812.023 C 126 820.377, 130.793 824, 141.846 824 L 148.791 824 156.146 816.712 C 160.191 812.703, 166.200 806.138, 169.500 802.123 C 172.800 798.108, 177.119 792.950, 179.097 790.661 C 181.076 788.373, 183.977 784.250, 185.545 781.500 C 187.113 778.750, 193.870 769.300, 200.562 760.500 C 207.253 751.700, 215.348 740.450, 218.551 735.500 C 221.753 730.550, 234.129 713, 246.052 696.500 C 257.975 680, 270.367 662.450, 273.590 657.500 C 280.401 647.040, 282.029 645, 283.571 645 C 286.097 645, 302.851 637.303, 305.889 634.747 C 307.684 633.236, 309.715 632, 310.402 632 C 311.089 632, 312.708 630.875, 314 629.500 C 315.292 628.125, 316.979 627, 317.749 627 C 318.520 627, 322.180 625.200, 325.883 623 C 329.586 620.800, 333.811 619, 335.271 619 C 338.282 619, 345.060 616.507, 356 611.375 C 363.150 608.022, 363.933 607.303, 372.776 595.982 C 382.775 583.180, 384.346 579.946, 385.349 570.101 C 385.915 564.539, 386.452 563.263, 389.451 560.351 C 391.348 558.508, 393.860 557, 395.032 557 C 398.177 557, 405.721 550.374, 407.005 546.484 C 408.124 543.095, 407.442 536, 405.997 536 C 405.568 536, 404.934 534.875, 404.589 533.500 C 404.244 532.125, 403.557 531, 403.063 531 C 402.098 531, 397.527 524.110, 398.136 523.575 C 398.336 523.398, 399.850 522.558, 401.500 521.707 C 406.382 519.190, 416.612 508.918, 420.131 503 C 423.158 497.907, 423.404 496.833, 423.450 488.500 C 423.495 480.382, 423.215 478.985, 420.591 474.250 C 418.991 471.363, 417.191 468.986, 416.591 468.969 C 415.991 468.951, 414.725 467.871, 413.779 466.569 C 412.063 464.207, 412.232 463.957, 471.096 381.866 C 503.567 336.583, 530.299 299.368, 530.500 299.166 C 530.701 298.965, 571.444 327.903, 621.038 363.472 C 670.633 399.041, 711.725 428.322, 712.355 428.540 C 712.985 428.759, 718.938 421.414, 725.584 412.219 C 732.230 403.023, 756.417 369.766, 779.334 338.314 C 802.250 306.861, 821 280.719, 821 280.220 C 821 279.721, 818.311 277.156, 815.025 274.520 C 811.604 271.776, 809.333 269.252, 809.713 268.614 C 810.077 268.001, 812.766 264.487, 815.688 260.803 C 818.609 257.120, 821 253.886, 821 253.617 C 821 253.348, 813.575 247.888, 804.500 241.485 C 795.425 235.082, 788 229.537, 788 229.163 C 788 228.790, 790.240 224.662, 792.977 219.992 C 795.714 215.321, 797.954 210.825, 797.954 210 C 797.954 209.108, 792.796 205.695, 785.227 201.578 C 764.284 190.188, 709.762 159.863, 706 157.512 C 704.075 156.309, 699.800 154.408, 696.500 153.287 C 693.200 152.166, 682.631 146.693, 673.014 141.125 C 663.397 135.556, 654.720 131, 653.733 131 C 652.745 131, 651.678 130.325, 651.362 129.500 C 651.045 128.675, 649.563 128, 648.067 128 C 643.953 128, 640.804 124.011, 640.234 118.079 C 639.798 113.546, 640.032 112.814, 642.800 110.046 C 650.539 102.307, 662.561 108.868, 660.525 119.719 C 659.840 123.371, 659.873 123.425, 661.739 121.736 C 662.794 120.781, 664.804 120, 666.206 120 C 667.608 120, 669.315 119.325, 670 118.500 C 670.685 117.675, 672.225 117, 673.422 117 C 674.620 117, 676.072 116.528, 676.649 115.951 C 677.332 115.268, 683.252 115.056, 693.599 115.344 C 711.388 115.839, 720.480 116.930, 723.603 118.942 C 726.502 120.811, 728 125.520, 728 132.769 C 728 139.802, 731.886 153.314, 735.074 157.367 C 736.468 159.140, 738.102 160, 740.073 160 C 742.631 160, 743 159.637, 743 157.122 C 743 155.540, 742.291 153.656, 741.423 152.936 C 740.076 151.818, 739.948 149.935, 740.542 139.977 C 741.161 129.604, 741.020 127.834, 739.256 123.845 C 738.166 121.381, 736.200 118.222, 734.887 116.826 C 732.639 114.434, 731.809 113.388, 726.986 106.866 C 724.376 103.338, 721.376 102.796, 701.806 102.318 C 685.508 101.919, 684.993 101.970, 680.089 104.455 C 677.327 105.855, 674.242 107, 673.233 107 C 672.225 107, 670.908 107.492, 670.306 108.094 C 669.705 108.695, 668.392 109.030, 667.390 108.837 C 665.828 108.536, 666.079 107.914, 669.147 104.493 C 671.116 102.297, 673.532 98.928, 674.515 97.007 C 675.499 95.085, 678.446 90.865, 681.065 87.628 C 687.939 79.132, 689.533 70.724, 685.211 65.750 C 683.238 63.479, 680.271 63.537, 676.359 65.923 C 672.021 68.568, 668.829 72.111, 654.446 90.250 C 647.577 98.912, 641.380 106, 640.675 106 C 639.970 106, 634.716 104.425, 629 102.500 C 621.510 99.978, 616.856 99, 612.339 99 L 606.070 99 571.785 73.770 C 552.928 59.894, 531.875 45.021, 525 40.719 C 518.125 36.418, 510.042 30.784, 507.037 28.199 C 504.032 25.615, 499.532 22.203, 497.037 20.618 C 494.542 19.033, 487.019 13.762, 480.320 8.903 L 468.140 0.071 460.356 10.535 M 418.268 12.250 C 416.907 13.991, 334.096 154.587, 333.469 156.221 C 333.134 157.093, 336.744 159.684, 343.996 163.774 C 350.066 167.198, 355.465 170, 355.993 170 C 356.889 170, 368 155.938, 368 154.803 C 368 154.518, 365.277 152.603, 361.948 150.549 C 358.619 148.494, 356.032 146.454, 356.198 146.016 C 356.364 145.577, 376.747 118.853, 401.493 86.630 C 426.239 54.406, 446.619 27.643, 446.781 27.157 C 447.027 26.419, 421.210 11, 419.729 11 C 419.463 11, 418.805 11.563, 418.268 12.250 M 466.750 12.893 C 465.788 13.869, 465 15.547, 465 16.621 C 465 18.447, 476.228 44.306, 477.973 46.500 C 478.411 47.050, 482.923 56.275, 488.001 67 C 493.079 77.725, 501.498 95.500, 506.711 106.500 C 519.745 134.005, 564.164 222.968, 565.972 225.190 C 567.105 226.583, 568.871 227, 573.634 227 C 577.038 227, 584.584 228.125, 590.403 229.500 C 596.222 230.875, 603.482 232, 606.536 232 C 609.590 232, 614.881 232.676, 618.294 233.502 C 621.708 234.328, 653.525 238.582, 689 242.955 C 724.475 247.328, 761.600 252.238, 771.500 253.865 C 800.585 258.646, 809.051 259.528, 810.091 257.887 C 810.574 257.124, 810.961 256.275, 810.951 256 C 810.920 255.190, 620.112 118.530, 618.529 118.185 C 617.734 118.011, 611.547 120.356, 604.780 123.394 C 587.904 130.971, 581.593 132.325, 566 131.717 C 555.937 131.324, 552.330 130.762, 547.500 128.836 C 540.318 125.972, 530.647 121.019, 531.186 120.481 C 531.398 120.269, 535.830 121.235, 541.035 122.627 C 546.241 124.019, 554.399 125.407, 559.165 125.713 C 567.277 126.232, 568.235 126.078, 574.165 123.301 C 577.649 121.670, 583.200 118.095, 586.500 115.358 C 589.800 112.621, 594.457 109.221, 596.849 107.803 L 601.198 105.225 593.849 99.821 C 569.294 81.766, 470.047 11.010, 469.346 11.059 C 468.880 11.092, 467.712 11.917, 466.750 12.893 M 414.456 81.562 C 390.441 112.671, 370.989 138.322, 371.231 138.564 C 372.145 139.478, 532.043 178.291, 532.599 177.734 C 533.327 177.006, 459.986 25, 458.907 25 C 458.475 25, 438.472 50.453, 414.456 81.562 M 367.326 144.583 C 368.892 146.294, 699.501 383.786, 699.855 383.455 C 700.050 383.273, 682.357 350.921, 660.538 311.562 L 620.865 240 615.676 240 C 612.822 240, 608.915 239.532, 606.993 238.959 C 603.789 238.004, 594.627 236.894, 575 235.084 C 570.875 234.703, 565.994 233.741, 564.154 232.946 C 560.522 231.377, 556.446 225.282, 551.436 213.930 C 549.875 210.393, 547.647 205.925, 546.484 204 C 545.322 202.075, 543.094 197.463, 541.535 193.750 C 539.976 190.037, 538.115 187, 537.400 187 C 536.685 187, 535.692 186.272, 535.194 185.381 C 534.096 183.420, 503.799 175.911, 446.874 163.493 C 414.876 156.513, 375.776 146.954, 368 144.211 C 367.143 143.908, 366.854 144.068, 367.326 144.583 M 694.548 161.834 C 695.125 162.473, 714.925 176.734, 738.548 193.523 L 781.500 224.050 783.525 221.540 C 784.639 220.160, 786.315 217.736, 787.250 216.154 L 788.949 213.278 745.725 189.493 C 721.951 176.411, 700.475 164.575, 698 163.189 C 695.525 161.804, 693.972 161.194, 694.548 161.834 M 630 243.353 C 630 243.767, 711.883 391.216, 712.400 391.733 C 712.593 391.926, 733.326 363.460, 758.475 328.475 C 783.623 293.490, 803.944 264.611, 803.632 264.299 C 803.108 263.774, 635.661 243.036, 631.750 243.011 C 630.788 243.005, 630 243.159, 630 243.353 M 456.095 375.750 C 403.279 445.491, 392.272 460.556, 393.941 460.818 C 395.056 460.992, 396.861 460.510, 397.952 459.746 C 399.043 458.982, 407.727 447.814, 417.251 434.929 C 430.935 416.414, 514.957 301.277, 520.872 292.935 C 521.627 291.871, 521.802 291, 521.261 291 C 520.720 291, 491.396 329.137, 456.095 375.750 M 388.446 413.567 C 386.217 414.868, 381.267 419.178, 377.446 423.144 C 367.880 433.074, 340.463 449.619, 331.035 451.150 C 328.541 451.555, 322.450 452.620, 317.500 453.516 C 312.550 454.412, 302.650 455.488, 295.500 455.907 C 288.350 456.326, 281.233 457.194, 279.685 457.835 C 278.137 458.476, 274.695 459, 272.036 459 C 265.602 459, 251.419 466.267, 239.359 475.744 C 234.486 479.573, 228.475 483.964, 226 485.501 C 223.525 487.039, 217.675 491.763, 213 496 C 208.325 500.237, 202.509 504.950, 200.075 506.475 C 197.641 507.999, 192.837 511.632, 189.400 514.548 C 185.964 517.463, 182.105 520.384, 180.826 521.039 C 179.547 521.693, 176.250 524.362, 173.500 526.969 C 167.452 532.701, 155.104 540.417, 148.402 542.653 C 145.706 543.552, 138.839 546.992, 133.142 550.299 L 122.784 556.310 123.448 561.322 C 124.904 572.293, 125.935 587.052, 125.976 597.500 C 126.084 624.834, 134.311 675, 138.686 675 C 141.268 675, 162.532 663.720, 167.029 659.966 L 171.558 656.184 187.529 655.621 C 207.801 654.906, 221.718 653.630, 225.315 652.154 C 226.863 651.520, 229.728 651, 231.681 651 C 233.633 651, 240.861 649.200, 247.743 647 C 255.878 644.399, 262.119 643, 265.583 643 C 269.612 643, 272.081 642.317, 275.706 640.199 C 278.343 638.659, 284.100 636.367, 288.500 635.106 C 296.995 632.673, 312.875 623.926, 317.088 619.360 C 320.222 615.963, 331.226 611, 335.625 611 C 337.517 611, 340.680 610.325, 342.654 609.500 C 344.629 608.675, 347.427 607.982, 348.872 607.960 C 352.414 607.907, 360.824 600.132, 361.614 596.180 C 362.085 593.826, 361.314 591.695, 357.931 586.001 C 355.355 581.665, 352.627 578.359, 351.076 577.693 C 344.473 574.858, 336.603 568.451, 337.648 566.761 C 338.639 565.158, 345.978 566.070, 349.631 568.250 C 355.396 571.691, 362.978 579.697, 365.174 584.661 C 366.259 587.112, 367.676 588.945, 368.323 588.734 C 370.346 588.073, 376.776 578.869, 377.403 575.737 C 378.889 568.307, 378.116 564.402, 373.917 558.114 C 371.672 554.751, 369.427 552, 368.930 552 C 368.432 552, 366.889 550.200, 365.500 548 C 364.083 545.755, 362.187 544, 361.179 544 C 360.191 544, 358.509 543.339, 357.441 542.532 C 354.929 540.631, 352.560 540.620, 351 542.500 C 350.128 543.551, 347.815 544, 343.271 544 C 337.768 544, 336.878 543.760, 337.393 542.418 C 337.727 541.548, 338 540.459, 338 539.999 C 338 539.538, 340.297 538.398, 343.105 537.465 C 349.552 535.324, 357.021 535.863, 363.351 538.928 C 368.146 541.249, 378.354 550.436, 381.162 554.958 L 382.688 557.415 386.837 554.129 C 389.119 552.321, 392.569 550.406, 394.503 549.872 C 399.622 548.458, 401.519 545.119, 399.948 540.288 C 398.506 535.854, 393.149 528, 391.567 528 C 390.965 528, 389.360 526.200, 388 524 C 386.640 521.800, 384.944 520, 384.231 520 C 383.517 520, 380.713 518.875, 378 517.500 C 374.111 515.529, 371.525 514.993, 365.783 514.967 C 357.448 514.929, 353.309 512.752, 354.491 509.028 C 355.059 507.239, 355.981 507, 362.317 506.997 C 368.175 506.995, 371.253 507.665, 379 510.632 C 384.225 512.632, 389.210 514.883, 390.079 515.635 C 394.342 519.322, 400.359 515.523, 411.127 502.345 L 417.257 494.842 416.780 488.163 C 416.068 478.212, 412.350 472.383, 404.124 468.320 C 401.270 466.911, 400.069 466.834, 396.360 467.826 C 390.961 469.270, 302 469.511, 302 468.082 C 302 464.563, 303.260 464, 311.139 464 C 315.921 464, 320.488 463.405, 322.654 462.500 C 327.524 460.465, 349.419 460.465, 357 462.500 C 364.472 464.506, 378.336 464.506, 380 462.500 C 380.685 461.675, 381.821 461, 382.525 461 C 383.228 461, 384.310 459.538, 384.929 457.750 C 385.547 455.962, 386.901 453.825, 387.937 453 C 388.974 452.175, 391.976 447.257, 394.610 442.071 C 400.907 429.670, 401.555 423.563, 397.363 416.100 C 395.788 413.296, 394.050 411.047, 393.500 411.101 C 392.950 411.155, 390.676 412.265, 388.446 413.567 M 246.500 493.099 C 235.438 501.163, 233.240 503.576, 234.340 506.445 C 235.389 509.178, 237.904 508.149, 245.813 501.750 C 250.062 498.313, 255.667 494.173, 258.269 492.551 C 261.685 490.421, 263 488.962, 263 487.301 C 263 482.847, 258.297 484.499, 246.500 493.099 M 265.985 525.777 C 261.472 528.052, 253.792 537.540, 254.194 540.346 C 254.944 545.576, 259.904 542.754, 269.068 531.886 C 272.760 527.507, 272.868 527.190, 271.181 525.663 C 269.545 524.184, 269.129 524.193, 265.985 525.777 M 61.500 568.927 C 37.300 580.929, 16.640 591.415, 15.588 592.230 C 13.963 593.488, 13.668 595.073, 13.621 602.804 C 13.590 607.806, 13.829 612.162, 14.151 612.484 C 14.473 612.807, 18.734 611.308, 23.619 609.154 C 47.990 598.406, 63.162 591.497, 69.500 588.259 C 73.350 586.293, 78.750 583.962, 81.500 583.080 C 84.250 582.198, 90.861 579.103, 96.191 576.202 C 101.521 573.301, 108.085 570.273, 110.777 569.474 C 113.469 568.674, 116.469 567.140, 117.442 566.064 C 119.304 564.007, 119.341 564.447, 116.126 550.500 C 115.480 547.700, 115.104 547.487, 110.467 547.302 C 105.840 547.118, 102.485 548.599, 61.500 568.927 M 267.129 559.021 C 261.929 562.789, 252.896 574.802, 253.243 577.490 C 253.824 581.986, 257.105 580.284, 265.849 570.950 C 276.078 560.031, 276.536 559.351, 274.957 557.448 C 273.216 555.350, 271.806 555.634, 267.129 559.021 M 94.500 580.195 C 81.300 586.844, 64.650 594.512, 57.500 597.237 C 39.692 604.022, 14.261 615.877, 13.552 617.724 C 12.324 620.925, 11.664 643, 12.797 643 C 13.404 643, 14.260 642.390, 14.700 641.645 C 15.140 640.900, 20 638.681, 25.500 636.713 C 31 634.746, 52.525 627.030, 73.333 619.568 C 94.141 612.106, 112.479 606, 114.083 606 C 115.687 606, 117.900 605.100, 119 604 C 120.843 602.157, 121 600.667, 121 585 C 121 572.038, 120.703 568.013, 119.750 568.054 C 119.063 568.083, 107.700 573.547, 94.500 580.195 M 112 609.925 C 107.875 612.026, 93.700 617.243, 80.500 621.518 C 67.300 625.794, 54.025 630.532, 51 632.048 C 47.975 633.563, 41.125 635.958, 35.779 637.370 C 30.432 638.782, 23.809 641.076, 21.062 642.469 C 18.314 643.861, 15.242 645, 14.234 645 C 11.218 645, 9.988 650.516, 10.148 663.319 C 10.274 673.439, 10.514 675, 11.941 675 C 14.143 675, 69.919 649.581, 92.500 638.286 C 102.400 633.334, 112.894 628.717, 115.819 628.025 C 119.685 627.111, 121.364 626.173, 121.965 624.593 C 123.027 621.798, 121.817 606.748, 120.500 606.383 C 119.950 606.231, 116.125 607.824, 112 609.925 M 117.500 631.270 C 105.669 635.525, 64.434 653.275, 55.149 658.109 C 48.906 661.360, 38.733 666, 32.541 668.421 C 14.313 675.548, 11.247 677.366, 10.072 681.747 C 8.896 686.125, 8.346 702.679, 9.342 703.676 C 9.716 704.050, 11.705 703.422, 13.761 702.281 C 15.818 701.140, 29.200 695.149, 43.500 688.968 C 80.408 673.016, 109.240 659.845, 118.250 654.821 C 127.035 649.923, 126.885 650.325, 124.667 637.510 C 123.361 629.961, 122.712 629.395, 117.500 631.270 M 250.500 652.217 C 249.400 652.821, 247.957 653.582, 247.293 653.908 C 246.629 654.233, 225.585 681.950, 200.528 715.500 C 175.472 749.050, 150.181 782.436, 144.327 789.691 C 138.473 796.945, 133.089 804.595, 132.363 806.691 C 130.948 810.776, 131.381 814, 133.345 814 C 134.548 814, 138 810.551, 138 809.349 C 138 809.003, 138.622 808.221, 139.381 807.610 C 140.853 806.427, 256 652.253, 256 651.465 C 256 650.623, 252.539 651.096, 250.500 652.217 M 124.475 654.609 C 123.916 655.494, 98.269 667.608, 67.480 681.529 C 26.484 700.066, 10.979 707.531, 9.555 709.420 C 7.949 711.549, 7.534 714.098, 7.181 724 C 6.946 730.600, 7.034 736, 7.378 736 C 8.173 736, 130.235 675.928, 131.273 675.026 C 131.698 674.657, 131.410 672.812, 130.634 670.927 C 129.857 669.042, 128.914 665.025, 128.539 662 C 127.395 652.798, 126.567 651.292, 124.475 654.609 M 130.458 679.691 C 126.893 682.365, 119.444 685.826, 115.772 686.515 C 113.782 686.888, 100.756 693.255, 86.827 700.663 C 72.897 708.072, 56.602 716.144, 50.616 718.602 C 41.869 722.194, 27.630 729.311, 8 739.904 C 6.833 740.534, 6.437 743.191, 6.217 751.882 L 5.934 763.051 15.938 758.031 C 21.440 755.270, 43.617 744.843, 65.221 734.859 C 86.824 724.876, 111.619 713.415, 120.320 709.392 C 129.021 705.368, 137.225 701.046, 138.552 699.788 C 142.002 696.517, 141.803 691.147, 137.984 684.473 C 134.546 678.463, 133.220 677.620, 130.458 679.691 M 139.500 702.826 C 138.950 703.346, 110.150 717.165, 75.500 733.535 C 40.850 749.905, 11.262 764.162, 9.750 765.217 C 6.271 767.645, 6.308 769.261, 9.989 775.678 C 13.688 782.128, 14.602 782.699, 17.324 780.257 C 18.521 779.183, 29.625 773.118, 42 766.780 C 61.492 756.796, 99.660 736.161, 120.929 724.108 C 124.590 722.034, 130.115 719.178, 133.207 717.763 C 136.299 716.347, 139.341 714.231, 139.968 713.061 C 141.371 710.438, 140.960 701.446, 139.500 702.826" stroke="none" fill="#090806" fill-rule="evenodd"/><path d="M 391.500 25.692 C 369.106 27.175, 341.329 31.527, 318.780 37.085 C 256.234 52.501, 198.927 81.705, 148.500 123.861 C 136.910 133.550, 108.550 161.910, 98.861 173.500 C 31.897 253.603, -2.521 351.752, 0.322 454.500 C 1.223 487.037, 4.704 514.104, 11.638 542.494 C 15.332 557.618, 22.719 582, 23.607 582 C 23.908 582, 28.724 579.470, 34.310 576.377 C 39.896 573.284, 46.661 570.102, 49.343 569.305 C 52.025 568.509, 59.233 565.345, 65.360 562.274 C 88.412 550.722, 109.337 541, 111.151 541 C 112.185 541, 115.504 542.396, 118.527 544.102 C 121.551 545.809, 124.581 546.936, 125.262 546.608 C 134.203 542.295, 149.599 533.267, 153.955 529.783 C 157.005 527.343, 163.946 522.781, 169.380 519.645 C 174.813 516.508, 181.338 512.109, 183.880 509.868 C 186.421 507.628, 190.088 504.983, 192.028 503.990 C 193.968 502.998, 201.843 496.605, 209.528 489.784 C 230.981 470.741, 250.968 456.572, 257.516 455.762 C 259.707 455.491, 262.850 454.795, 264.500 454.216 C 273.441 451.073, 283.521 449.370, 300 448.216 C 305.775 447.811, 311.483 446.922, 312.684 446.240 C 313.886 445.558, 317.261 444.984, 320.184 444.965 C 323.108 444.945, 326.625 444.286, 328 443.500 C 329.375 442.714, 332.202 442.055, 334.282 442.035 C 339.116 441.990, 343.845 439.967, 346.924 436.629 C 348.258 435.183, 349.902 434, 350.579 434 C 352.622 434, 372.782 420.276, 373.953 418.088 C 374.552 416.968, 378.121 413.564, 381.884 410.524 C 387.627 405.884, 389.421 404.969, 393.053 404.827 C 395.864 404.717, 397.691 405.155, 398.265 406.079 C 398.752 406.860, 401.047 410.520, 403.366 414.212 L 407.583 420.923 457.878 352.817 C 485.541 315.359, 508.385 284.160, 508.643 283.487 C 508.915 282.779, 507.507 281.613, 505.307 280.724 C 503.213 279.878, 500.161 277.776, 498.524 276.052 C 496.887 274.328, 493.287 271.490, 490.524 269.745 C 487.761 268, 480.325 262.698, 474 257.964 C 467.675 253.229, 458.675 246.952, 454 244.014 C 449.325 241.076, 443.475 236.764, 441 234.431 C 438.525 232.098, 432.450 227.622, 427.500 224.483 C 422.550 221.345, 416.475 216.877, 414 214.554 C 408.498 209.390, 399.014 203.427, 374.944 189.997 C 364.800 184.338, 353.861 177.973, 350.636 175.854 C 347.411 173.734, 344.199 172, 343.498 172 C 342.798 172, 339.983 170.458, 337.244 168.574 C 334.505 166.690, 330.404 164.647, 328.132 164.035 C 325.826 163.415, 324 162.314, 324 161.545 C 324 160.787, 323.563 160.017, 323.029 159.833 C 322.494 159.650, 340.044 129.438, 362.029 92.695 C 384.013 55.953, 402 25.690, 402 25.445 C 402 25.200, 400.762 25.081, 399.250 25.180 C 397.738 25.279, 394.250 25.510, 391.500 25.692 M 473.090 35.500 C 473.090 36.050, 474.175 38.525, 475.500 41 C 476.825 43.475, 477.910 45.050, 477.910 44.500 C 477.910 43.950, 476.825 41.475, 475.500 39 C 474.175 36.525, 473.090 34.950, 473.090 35.500 M 530.500 43.844 C 535.450 47.045, 554.309 60.539, 572.408 73.832 L 605.316 98 610.955 98 C 614.882 98, 620.207 99.214, 628.500 102 C 635.048 104.200, 640.710 106, 641.082 106 C 641.453 106, 643.715 103.462, 646.109 100.359 L 650.461 94.718 648.134 93.109 C 632.035 81.976, 598.148 64.314, 575.500 55.251 C 556.367 47.595, 526.765 37.963, 522.520 38.012 C 521.959 38.018, 525.550 40.643, 530.500 43.844 M 394.567 93.421 C 373.904 120.052, 356.693 142.664, 356.319 143.671 C 355.312 146.384, 357.538 143.560, 395.478 94 C 414.636 68.975, 430.985 47.712, 431.810 46.750 C 432.635 45.788, 433.046 45, 432.723 45 C 432.400 45, 415.230 66.789, 394.567 93.421 M 498 87.205 C 498 88.722, 539.682 174, 540.423 174 C 540.830 174, 499.207 87.873, 498.420 87.086 C 498.189 86.856, 498 86.909, 498 87.205 M 676.232 116.168 C 674.878 117.522, 668.254 119.963, 665.872 119.985 C 664.977 119.993, 663.685 120.675, 663 121.500 C 662.315 122.325, 661.116 123, 660.336 123 C 659.555 123, 657.950 123.900, 656.770 125 C 654.081 127.505, 647.954 127.646, 644.215 125.289 L 641.500 123.578 643.405 125.789 C 644.453 127.005, 646.281 128, 647.467 128 C 650.415 128, 655.772 130.693, 674.615 141.647 C 683.478 146.799, 693.337 151.912, 696.523 153.008 C 699.710 154.104, 706.858 157.627, 712.408 160.837 C 717.959 164.046, 725.650 168.380, 729.500 170.468 C 733.350 172.556, 738.075 175.199, 740 176.342 C 743.141 178.206, 742.839 177.653, 737.058 170.960 C 722.501 154.102, 681.326 115, 678.132 115 C 677.729 115, 676.874 115.526, 676.232 116.168 M 371.628 137.793 C 371.278 138.360, 493.576 168.961, 531.500 177.796 C 533.280 178.211, 533.335 178.096, 532 176.749 C 530.778 175.516, 376.836 137, 373.131 137 C 372.574 137, 371.897 137.357, 371.628 137.793 M 333.026 156.724 C 333.049 157.413, 355.201 170, 356.389 170 C 356.650 170, 357.836 168.537, 359.024 166.750 L 361.183 163.500 358.722 166.154 L 356.261 168.808 352.380 166.618 C 339.793 159.513, 333.003 156.042, 333.026 156.724 M 594.500 230.067 C 598.350 231.105, 604.203 231.965, 607.507 231.977 C 610.810 231.990, 615.085 232.460, 617.007 233.021 C 618.928 233.583, 649.525 237.628, 685 242.010 C 720.475 246.392, 758.050 251.347, 768.500 253.021 C 778.950 254.696, 789.075 256.309, 791 256.606 C 794.052 257.077, 794.308 256.964, 793 255.725 C 791.946 254.728, 761.442 250.386, 690.500 241.136 C 634.950 233.894, 589.050 228.016, 588.500 228.074 C 587.950 228.133, 590.650 229.030, 594.500 230.067 M 762.028 362.576 C 735.403 399.109, 713.232 429, 712.758 429 C 712.284 429, 671.429 399.975, 621.969 364.500 C 572.509 329.025, 531.612 300, 531.086 300 C 530.158 300, 414.376 460.857, 413.316 463.619 C 413.025 464.378, 414.128 466.251, 415.766 467.782 C 420.919 472.595, 424.026 480.061, 424.172 487.983 C 424.283 493.983, 423.846 495.871, 421.019 501.613 C 417.355 509.055, 406.682 520.208, 401.345 522.172 C 397.827 523.466, 397.857 524.863, 401.487 529 C 406.509 534.721, 408.270 538.907, 407.723 543.816 C 407.265 547.926, 406.553 549.082, 401.910 553.250 C 398.749 556.087, 395.666 558, 394.253 558 C 392.886 558, 390.699 559.301, 389.073 561.081 C 386.850 563.515, 386.124 565.487, 385.612 570.480 C 385.256 573.956, 384.398 578.436, 383.706 580.436 C 381.795 585.956, 364.300 607.806, 360.059 609.970 C 352.757 613.695, 338.519 619, 335.823 619 C 334.290 619, 330.094 620.800, 326.500 623 C 322.906 625.200, 319.376 627, 318.657 627 C 317.937 627, 316.292 628.125, 315 629.500 C 313.708 630.875, 312.007 632, 311.220 632 C 310.432 632, 308.055 633.372, 305.937 635.050 C 303.820 636.727, 297.734 639.870, 292.413 642.035 C 287.092 644.200, 282.117 646.488, 281.358 647.118 C 280.598 647.749, 277.115 652.631, 273.619 657.968 C 270.122 663.304, 257.849 680.682, 246.344 696.585 C 234.840 712.488, 222.483 730, 218.884 735.500 C 215.285 741, 207.115 752.351, 200.727 760.725 C 194.340 769.098, 187.887 778.098, 186.388 780.725 C 184.888 783.351, 183.027 786.250, 182.252 787.166 C 180.986 788.662, 181.590 789.335, 188.171 793.754 C 217.926 813.733, 257.911 832.753, 293.500 843.855 C 492.189 905.837, 705.336 813.654, 796.068 626.500 C 814.048 589.412, 826.036 551.751, 832.359 512.494 C 836.051 489.573, 836.991 479.326, 837.678 454.500 C 838.757 415.502, 834.827 379.302, 825.452 341.881 C 821.708 326.934, 812.389 297.358, 811.191 296.618 C 810.776 296.361, 788.652 326.042, 762.028 362.576 M 443.546 396.611 C 418.984 429.947, 399.085 457.419, 399.326 457.660 C 399.813 458.147, 423.105 426.799, 459.998 376 C 473.380 357.575, 485.433 341.038, 486.783 339.250 C 488.133 337.462, 489.005 336, 488.721 336 C 488.436 336, 468.108 363.275, 443.546 396.611 M 391.405 446.250 C 390.500 448.038, 389.068 450.288, 388.224 451.250 C 387.381 452.212, 387.138 453, 387.686 453 C 388.234 453, 389.907 450.750, 391.403 448 C 392.900 445.250, 393.883 443, 393.588 443 C 393.293 443, 392.311 444.462, 391.405 446.250 M 304.500 463 C 303.167 463.573, 305.333 463.878, 311 463.914 C 315.675 463.945, 320.175 463.533, 321 463 C 322.919 461.760, 307.385 461.760, 304.500 463 M 360 463 C 363.652 464.170, 377.777 464.170, 378.500 463 C 378.899 462.355, 375.284 462.035, 368.309 462.100 C 361.351 462.164, 358.391 462.485, 360 463 M 372.083 507.415 C 373.071 508.400, 386.028 512.854, 385.522 512.035 C 384.919 511.060, 374.659 507, 372.796 507 C 372.175 507, 371.854 507.187, 372.083 507.415 M 397.500 514.107 C 395.850 515.185, 393.501 515.892, 392.280 515.678 C 391.059 515.464, 390.298 515.674, 390.589 516.144 C 391.695 517.934, 396.691 516.957, 399 514.500 C 401.776 511.545, 401.521 511.479, 397.500 514.107 M 352.500 535.902 C 360.777 536.759, 365.253 538.728, 371.718 544.352 C 375.777 547.884, 376.115 548.036, 373.993 545.375 C 372.622 543.656, 369.302 540.731, 366.615 538.876 C 362.128 535.777, 361.069 535.489, 353.615 535.339 L 345.500 535.176 352.500 535.902 M 396.694 546.585 C 395.065 547.987, 394.476 549, 395.289 549 C 396.750 549, 400.627 545.292, 399.911 544.579 C 399.685 544.354, 398.237 545.257, 396.694 546.585 M 385.305 553.462 C 382.997 554.735, 381.359 556.025, 381.663 556.330 C 382.177 556.844, 390 552.186, 390 551.367 C 390 550.868, 390.048 550.847, 385.305 553.462 M 113 567 C 109.455 568.941, 109.707 569.454, 113.681 568.388 C 114.880 568.066, 116.104 567.172, 116.399 566.401 C 117.052 564.701, 117.268 564.663, 113 567 M 357.958 574.250 C 362.102 578.665, 363 579.459, 363 578.708 C 363 578.548, 360.863 576.410, 358.250 573.958 L 353.500 569.500 357.958 574.250 M 89.500 577.672 C 78.225 582.760, 76.990 583.553, 82 582.493 C 85.218 581.812, 100 574.352, 100 573.410 C 100 572.888, 101.038 572.466, 89.500 577.672 M 52.791 594.345 C 41.952 599.380, 32.736 603.866, 32.312 604.313 C 31.458 605.213, 33.799 604.230, 55.248 594.682 C 68.656 588.713, 76.003 584.848, 73.473 585.095 C 72.938 585.147, 63.631 589.310, 52.791 594.345 M 353.439 604.099 C 353.065 604.703, 351.351 605.810, 349.630 606.560 C 346.673 607.846, 346.639 607.922, 349 607.929 C 350.512 607.934, 352.210 606.962, 353.297 605.469 C 354.285 604.111, 354.874 603, 354.606 603 C 354.337 603, 353.812 603.494, 353.439 604.099 M 314.074 620.221 C 311.640 621.943, 305.115 625.739, 299.574 628.655 C 290.239 633.568, 288.351 635.449, 295.541 632.674 C 299.769 631.042, 315.483 621.228, 317.581 618.910 C 319.944 616.299, 319.249 616.559, 314.074 620.221 M 115.500 626.621 C 112.750 627.970, 111.256 628.859, 112.179 628.596 C 113.102 628.333, 115.434 627.822, 117.360 627.460 C 119.286 627.099, 121.104 626.173, 121.399 625.402 C 122.104 623.564, 121.453 623.699, 115.500 626.621 M 74.776 644.728 C 64.478 649.429, 56.274 653.635, 56.545 654.073 C 57.089 654.952, 81.295 644.174, 90 639.176 C 98.786 634.132, 94.813 635.581, 74.776 644.728 M 268 641 L 262.500 642.804 266.500 642.895 C 268.948 642.951, 271.664 642.216, 273.500 641 C 277.137 638.591, 275.344 638.591, 268 641 M 239.135 647.560 C 233.984 648.849, 224.984 650.573, 219.135 651.390 L 208.500 652.876 216.500 652.480 C 228.439 651.889, 236.699 650.468, 244.500 647.665 C 253.191 644.541, 251.342 644.505, 239.135 647.560 M 98.051 661.947 C 82.953 668.959, 70.427 675.219, 70.215 675.856 C 69.710 677.369, 70.427 677.082, 93.391 666.574 C 103.781 661.820, 114.942 656.371, 118.194 654.465 C 121.446 652.559, 124.533 651, 125.054 651 C 125.574 651, 126 650.550, 126 650 C 126 649.450, 125.888 649.044, 125.750 649.099 C 125.612 649.153, 113.148 654.935, 98.051 661.947 M 250.053 658.250 C 247.086 662.237, 243.557 666.962, 242.211 668.750 C 240.864 670.538, 239.986 672, 240.259 672 C 240.719 672, 253.675 655.063, 255.366 652.250 C 257.329 648.986, 254.935 651.689, 250.053 658.250 M 195.500 654.515 C 187.515 655.746, 187.510 655.749, 193 655.855 C 196.025 655.913, 200.750 655.335, 203.500 654.570 C 209.584 652.877, 206.266 652.854, 195.500 654.515 M 166.500 658.623 C 165.400 659.481, 158.277 663.243, 150.671 666.983 C 143.065 670.724, 137.307 674.072, 137.875 674.423 C 139.214 675.251, 161.330 664.145, 166.388 660.105 C 168.526 658.397, 169.876 657.014, 169.388 657.032 C 168.899 657.049, 167.600 657.765, 166.500 658.623 M 224.500 660.209 C 222.300 660.642, 213.525 661.472, 205 662.055 C 196.475 662.638, 186.125 663.351, 182 663.640 C 177.875 663.928, 173.825 664.709, 173 665.375 C 172.175 666.041, 169.807 667.160, 167.738 667.862 C 161.314 670.041, 145 678.078, 145 679.064 C 145 679.579, 144.332 680, 143.515 680 C 142.274 680, 142.368 680.860, 144.088 685.223 C 145.874 689.754, 146.104 692.192, 145.823 703.613 C 145.439 719.253, 146.208 718.189, 130.130 725.342 C 113.294 732.833, 113.561 731.216, 127 744.313 C 133.325 750.477, 141.225 757.846, 144.556 760.691 L 150.612 765.861 156.840 757.891 C 160.265 753.507, 164.476 747.576, 166.198 744.710 C 167.920 741.845, 173.701 734.082, 179.045 727.460 C 184.388 720.837, 190.253 712.962, 192.077 709.960 C 193.902 706.957, 199.748 699.100, 205.068 692.500 C 210.389 685.900, 216.433 677.800, 218.499 674.500 C 220.565 671.200, 223.825 666.854, 225.742 664.841 C 227.659 662.829, 229.064 660.787, 228.864 660.303 C 228.663 659.816, 226.710 659.775, 224.500 660.209 M 109 685 C 102.675 688.243, 97.950 690.897, 98.500 690.897 C 99.050 690.897, 104.675 688.243, 111 685 C 117.325 681.757, 122.050 679.103, 121.500 679.103 C 120.950 679.103, 115.325 681.757, 109 685 M 119.750 707.273 C 109.438 712.277, 101 716.716, 101 717.139 C 101 718.423, 135.819 702.166, 138.244 699.750 C 139.210 698.788, 139.662 698.040, 139.250 698.088 C 138.838 698.137, 130.063 702.270, 119.750 707.273 M 130.750 717.563 C 127.037 719.469, 124 721.252, 124 721.526 C 124 721.973, 137.900 715.316, 138.917 714.383 C 140.284 713.126, 136.594 714.564, 130.750 717.563 M 115.750 725.566 C 113.138 726.926, 111 728.262, 111 728.536 C 111 728.810, 113.250 727.894, 116 726.500 C 118.750 725.106, 121 723.749, 121 723.483 C 121 722.822, 121.090 722.786, 115.750 725.566 M 177.952 754.750 C 172.291 762.313, 166.557 769.962, 165.211 771.750 C 163.864 773.538, 162.986 775, 163.259 775 C 163.531 775, 168.387 768.813, 174.048 761.250 C 179.709 753.688, 185.443 746.038, 186.789 744.250 C 188.136 742.462, 189.014 741, 188.741 741 C 188.469 741, 183.613 747.188, 177.952 754.750" stroke="none" fill="#f1b639" fill-rule="evenodd"/></svg>